<?xml version="1.0" encoding="utf-8"?>
<!-- Generator: Adobe Illustrator 22.1.0, SVG Export Plug-In . SVG Version: 6.00 Build 0)  -->
<svg version="1.1" id="Layer_1" xmlns="http://www.w3.org/2000/svg" xmlns:xlink="http://www.w3.org/1999/xlink" x="0px" y="0px"
	 width="1368px" height="792px" viewBox="0 0 1368 792" style="enable-background:new 0 0 1368 792;" xml:space="preserve">
<style type="text/css">
	.st0{fill:none;stroke:#FF0000;stroke-miterlimit:10;}
</style>
<g>
	<polygon class="st0" points="149.1,33.5 149.1,50.7 158.1,50.7 158.1,69.5 149.1,69.5 149.1,86.7 158.1,86.7 158.1,105.5 
		149.1,105.5 149.1,122.7 158.1,122.7 158.1,141.5 149.1,141.5 149.1,158.7 158.1,158.7 158.1,177.5 149.1,177.5 149.1,194.7 
		158.1,194.7 158.1,213.5 149.1,213.5 149.1,230.7 158.1,230.7 158.1,249.5 149.1,249.5 149.1,266.7 158.1,266.7 158.1,285.5 
		149.1,285.5 149.1,302.7 158.1,302.7 158.1,321.5 149.1,321.5 149.1,338.7 158.1,338.7 158.1,357.5 149.1,357.5 149.1,374.7 
		158.1,374.7 158.1,393.5 149.1,393.5 149.1,410.7 158.1,410.7 158.1,429.5 149.1,429.5 149.1,446.7 158.1,446.7 158.1,456.2 
		130.8,456.2 130.8,447.2 113.4,447.2 113.4,456.2 94.8,456.2 94.8,447.2 77.4,447.2 77.4,456.2 58.8,456.2 58.8,447.2 41.4,447.2 
		41.4,456.2 14.1,456.2 14.1,338.7 23.1,338.7 23.1,321.5 14.1,321.5 14.1,302.7 23.1,302.7 23.1,285.5 14.1,285.5 14.1,266.7 
		23.1,266.7 23.1,249.5 14.1,249.5 14.1,230.7 23.1,230.7 23.1,213.5 14.1,213.5 14.1,194.7 23.1,194.7 23.1,177.5 14.1,177.5 
		14.1,158.7 23.1,158.7 23.1,141.5 14.1,141.5 14.1,122.7 23.1,122.7 23.1,105.5 14.1,105.5 14.1,86.7 23.1,86.7 23.1,69.5 
		14.1,69.5 14.1,50.7 23.1,50.7 23.1,33.5 14.1,33.5 14.1,24.2 158.1,24.2 158.1,33.5 	"/>
	<g>
		<rect x="73.3" y="398.6" transform="matrix(0.866 -0.5 0.5 0.866 -190.5138 95.1723)" class="st0" width="18" height="9"/>
		<rect x="104.5" y="380.6" transform="matrix(0.866 -0.5 0.5 0.866 -177.337 108.3491)" class="st0" width="18" height="9"/>
		<rect x="42.2" y="416.6" transform="matrix(0.866 -0.5 0.5 0.866 -203.6906 81.9954)" class="st0" width="18" height="9"/>
	</g>
	<g>
		
			<rect x="121.2" y="165.8" transform="matrix(0.8192 -0.5736 0.5736 0.8192 -74.1124 105.4984)" class="st0" width="18" height="9"/>
		<rect x="91.8" y="186.4" transform="matrix(0.8192 -0.5736 0.5736 0.8192 -91.289 92.3182)" class="st0" width="18" height="9"/>
	</g>
	<g>
		
			<rect x="32.6" y="260.9" transform="matrix(-0.8192 -0.5736 0.5736 -0.8192 -76.5105 506.7552)" class="st0" width="18" height="9"/>
		
			<rect x="62.1" y="281.6" transform="matrix(-0.8192 -0.5736 0.5736 -0.8192 -34.7082 561.2328)" class="st0" width="18" height="9"/>
	</g>
	<g>
		
			<rect x="32.6" y="65.7" transform="matrix(-0.8192 -0.5736 0.5736 -0.8192 35.4901 151.5317)" class="st0" width="18" height="9"/>
		
			<rect x="62.1" y="86.3" transform="matrix(-0.8192 -0.5736 0.5736 -0.8192 77.2925 206.0093)" class="st0" width="18" height="9"/>
	</g>
</g>
<polygon class="st0" points="739.3,51.2 748.3,51.2 748.3,69.2 739.3,69.2 739.3,87.2 748.3,87.2 748.3,105.2 739.3,105.2 
	739.3,123.2 748.3,123.2 748.3,141.2 739.3,141.2 739.3,168.2 613.3,168.2 613.3,141.2 604.3,141.2 604.3,123.2 613.3,123.2 
	613.3,105.2 604.3,105.2 604.3,87.2 613.3,87.2 613.3,69.2 604.3,69.2 604.3,51.2 613.3,51.2 613.3,24.2 739.3,24.2 "/>
<polygon class="st0" points="739.3,301.1 748.3,301.1 748.3,283.1 739.3,283.1 739.3,265.1 748.3,265.1 748.3,247.1 739.3,247.1 
	739.3,239.9 613.3,239.9 613.3,247.1 604.3,247.1 604.3,265.1 613.3,265.1 613.3,283.1 604.3,283.1 604.3,301.1 613.3,301.1 
	613.3,308.3 739.3,308.3 "/>
<polygon class="st0" points="739.3,232.7 748.3,232.7 748.3,214.7 739.3,214.7 739.3,196.7 748.3,196.7 748.3,178.7 739.3,178.7 
	739.3,171.5 613.3,171.5 613.3,178.7 604.3,178.7 604.3,196.7 613.3,196.7 613.3,214.7 604.3,214.7 604.3,232.7 613.3,232.7 
	613.3,239.9 739.3,239.9 "/>
<polygon class="st0" points="592.4,411.3 601.4,411.3 601.4,393.3 592.4,393.3 592.4,375.3 601.4,375.3 601.4,357.3 592.4,357.3 
	592.4,350.1 466.4,350.1 466.4,357.3 457.4,357.3 457.4,375.3 466.4,375.3 466.4,393.3 457.4,393.3 457.4,411.3 466.4,411.3 
	466.4,418.5 592.4,418.5 "/>
<polygon class="st0" points="1243.5,676.8 1243.5,667.8 1226,667.8 1226,676.8 1207.5,676.8 1207.5,667.8 1190,667.8 1190,676.8 
	1171.5,676.8 1171.5,667.8 1154,667.8 1154,676.8 1135.5,676.8 1135.5,667.8 1118,667.8 1118,676.8 1099.5,676.8 1099.5,667.8 
	1082,667.8 1082,676.8 1063.5,676.8 1063.5,667.8 1046,667.8 1046,676.8 1027.5,676.8 1027.5,667.8 1010,667.8 1010,676.8 
	991.5,676.8 991.5,667.8 974,667.8 974,676.8 955.5,676.8 955.5,667.8 938,667.8 938,676.8 919.5,676.8 919.5,667.8 902,667.8 
	902,676.8 883.5,676.8 883.5,667.8 866,667.8 866,676.8 847.5,676.8 847.5,667.8 829.9,667.8 829.9,676.8 810.6,676.8 810.6,657.5 
	819.6,657.5 819.6,639.9 810.6,639.9 810.6,621.4 819.6,621.4 819.6,603.9 810.6,603.9 810.6,585.4 819.6,585.4 819.6,567.9 
	810.6,567.9 810.6,549.4 819.6,549.4 819.6,531.8 810.6,531.8 810.6,512.5 829.9,512.5 829.9,521.5 847.5,521.5 847.5,512.5 
	866,512.5 866,521.5 883.5,521.5 883.5,512.5 902,512.5 902,521.5 919.5,521.5 919.5,512.5 938,512.5 938,521.5 955.5,521.5 
	955.5,512.5 974,512.5 974,521.5 991.5,521.5 991.5,512.5 1010,512.5 1010,521.5 1027.5,521.5 1027.5,512.5 1046,512.5 1046,521.5 
	1063.5,521.5 1063.5,512.5 1082,512.5 1082,521.5 1099.5,521.5 1099.5,512.5 1118,512.5 1118,521.5 1135.5,521.5 1135.5,512.5 
	1154,512.5 1154,521.5 1171.5,521.5 1171.5,512.5 1190,512.5 1190,521.5 1207.5,521.5 1207.5,512.5 1226,512.5 1226,521.5 
	1243.5,521.5 1243.5,512.5 1262.8,512.5 1262.8,531.8 1253.8,531.8 1253.8,549.4 1262.8,549.4 1262.8,567.9 1253.8,567.9 
	1253.8,585.4 1262.8,585.4 1262.8,603.9 1253.8,603.9 1253.8,621.4 1262.8,621.4 1262.8,639.9 1253.8,639.9 1253.8,657.5 
	1262.8,657.5 1262.8,676.8 "/>
<rect x="867.2" y="204.5" class="st0" width="432" height="146.3"/>
<polygon class="st0" points="302.9,32.9 301.3,33.1 300.3,32.9 299.4,33.1 298.7,32.9 297.1,33.1 297.1,24.2 215.2,24.2 171.1,24.2 
	171.1,33.1 169.5,32.9 168.8,33.1 167.9,32.9 166.9,33.1 165.3,32.9 162.1,33.1 162.1,33.2 162.1,51.2 162.1,51.2 162.1,51.2 
	165.3,51.5 166.9,51.2 166.9,51.2 167.9,51.5 168.8,51.2 168.8,51.2 169.5,51.5 171.1,51.2 171.1,51.2 171.1,69.1 169.5,68.9 
	168.8,69.1 167.9,68.9 166.9,69.1 165.3,68.9 162.1,69.1 162.1,69.2 162.1,87.2 162.1,87.2 162.1,87.2 165.3,87.5 166.9,87.2 
	166.9,87.2 167.9,87.5 168.8,87.2 168.8,87.2 169.5,87.5 171.1,87.2 171.1,87.2 171.1,105.1 169.5,104.9 168.8,105.1 167.9,104.9 
	166.9,105.1 165.3,104.9 162.1,105.1 162.1,105.2 162.1,123.2 162.1,123.2 162.1,123.2 165.3,123.5 166.9,123.2 166.9,123.2 
	167.9,123.5 168.8,123.2 168.8,123.2 169.5,123.5 171.1,123.2 171.1,123.2 171.1,141.1 169.5,140.9 168.8,141.1 167.9,140.9 
	166.9,141.1 165.3,140.9 162.1,141.1 162.1,141.2 162.1,159.2 162.1,159.2 162.1,159.2 165.3,159.5 166.9,159.2 166.9,159.2 
	167.9,159.5 168.8,159.2 168.8,159.2 169.5,159.5 171.1,159.2 171.1,159.2 171.1,177.1 169.5,176.9 168.8,177.1 167.9,176.9 
	166.9,177.1 165.3,176.9 162.1,177.1 162.1,177.2 162.1,195.2 162.1,195.2 162.1,195.2 165.3,195.5 166.9,195.2 166.9,195.2 
	167.9,195.5 168.8,195.2 168.8,195.2 169.5,195.5 171.1,195.2 171.1,195.2 171.1,213.1 169.5,212.9 168.8,213.1 167.9,212.9 
	166.9,213.1 165.3,212.9 162.1,213.1 162.1,213.2 162.1,231.2 162.1,231.2 162.1,231.2 165.3,231.5 166.9,231.2 166.9,231.2 
	167.9,231.5 168.8,231.2 168.8,231.2 169.5,231.5 171.1,231.2 171.1,231.2 171.1,249.1 169.5,248.9 168.8,249.1 167.9,248.9 
	166.9,249.1 165.3,248.9 162.1,249.1 162.1,249.2 162.1,267.2 162.1,267.2 162.1,267.2 165.3,267.5 166.9,267.2 166.9,267.2 
	167.9,267.5 168.8,267.2 168.8,267.2 169.5,267.5 171.1,267.2 171.1,267.2 171.1,285.1 169.5,284.9 168.8,285.1 167.9,284.9 
	166.9,285.1 165.3,284.9 162.1,285.1 162.1,285.2 162.1,303.2 162.1,303.2 162.1,303.2 165.3,303.5 166.9,303.2 166.9,303.2 
	167.9,303.5 168.8,303.2 168.8,303.2 169.5,303.5 171.1,303.2 171.1,303.2 171.1,321.1 169.5,320.9 168.8,321.1 167.9,320.9 
	166.9,321.1 165.3,320.9 162.1,321.1 162.1,321.2 162.1,339.2 162.1,339.2 162.1,339.2 165.3,339.5 166.9,339.2 166.9,339.2 
	167.9,339.5 168.8,339.2 168.8,339.2 169.5,339.5 171.1,339.2 171.1,339.2 171.1,357.1 169.5,356.9 168.8,357.1 167.9,356.9 
	166.9,357.1 165.3,356.9 162.1,357.1 162.1,357.2 162.1,375.2 162.1,375.2 162.1,375.2 165.3,375.5 166.9,375.2 166.9,375.2 
	167.9,375.5 168.8,375.2 168.8,375.2 169.5,375.5 171.1,375.2 171.1,375.2 171.1,393.1 169.5,392.9 168.8,393.1 167.9,392.9 
	166.9,393.1 165.3,392.9 162.1,393.1 162.1,393.2 162.1,411.2 162.1,411.2 162.1,411.2 165.3,411.5 166.9,411.2 166.9,411.2 
	167.9,411.5 168.8,411.2 168.8,411.2 169.5,411.5 171.1,411.2 171.1,411.2 171.1,429.1 169.5,428.9 168.8,429.1 167.9,428.9 
	166.9,429.1 165.3,428.9 162.1,429.1 162.1,429.2 162.1,447.2 162.1,447.2 162.1,447.2 165.3,447.5 166.9,447.2 166.9,447.2 
	167.9,447.5 168.8,447.2 168.8,447.2 169.5,447.5 171.1,447.2 171.1,447.2 171.1,456.2 189.1,456.2 189.1,447.2 207.1,447.2 
	207.1,456.2 225.1,456.2 225.1,447.2 243.1,447.2 243.1,456.2 261.1,456.2 261.1,447.2 279.1,447.2 279.1,456.2 297.1,456.2 
	297.1,447.2 297.2,447.2 298.7,447.5 299.4,447.2 299.5,447.2 300.3,447.5 301.2,447.2 301.4,447.2 302.9,447.5 305.9,447.2 
	306.1,447.2 306.1,447.2 306.1,429.2 306.1,429.1 302.9,428.9 301.3,429.1 300.3,428.9 299.4,429.1 298.7,428.9 297.1,429.1 
	297.1,411.2 297.2,411.2 298.7,411.5 299.4,411.2 299.5,411.2 300.3,411.5 301.2,411.2 301.4,411.2 302.9,411.5 305.9,411.2 
	306.1,411.2 306.1,411.2 306.1,393.2 306.1,393.1 302.9,392.9 301.3,393.1 300.3,392.9 299.4,393.1 298.7,392.9 297.1,393.1 
	297.1,375.2 297.2,375.2 298.7,375.5 299.4,375.2 299.5,375.2 300.3,375.5 301.2,375.2 301.4,375.2 302.9,375.5 305.9,375.2 
	306.1,375.2 306.1,375.2 306.1,357.2 306.1,357.1 302.9,356.9 301.3,357.1 300.3,356.9 299.4,357.1 298.7,356.9 297.1,357.1 
	297.1,339.2 297.2,339.2 298.7,339.5 299.4,339.2 299.5,339.2 300.3,339.5 301.2,339.2 301.4,339.2 302.9,339.5 305.9,339.2 
	306.1,339.2 306.1,339.2 306.1,321.2 306.1,321.1 302.9,320.9 301.3,321.1 300.3,320.9 299.4,321.1 298.7,320.9 297.1,321.1 
	297.1,303.2 297.2,303.2 298.7,303.5 299.4,303.2 299.5,303.2 300.3,303.5 301.2,303.2 301.4,303.2 302.9,303.5 305.9,303.2 
	306.1,303.2 306.1,303.2 306.1,285.2 306.1,285.1 302.9,284.9 301.3,285.1 300.3,284.9 299.4,285.1 298.7,284.9 297.1,285.1 
	297.1,267.2 297.2,267.2 298.7,267.5 299.4,267.2 299.5,267.2 300.3,267.5 301.2,267.2 301.4,267.2 302.9,267.5 305.9,267.2 
	306.1,267.2 306.1,267.2 306.1,249.2 306.1,249.1 302.9,248.9 301.3,249.1 300.3,248.9 299.4,249.1 298.7,248.9 297.1,249.1 
	297.1,231.2 297.2,231.2 298.7,231.5 299.4,231.2 299.5,231.2 300.3,231.5 301.2,231.2 301.4,231.2 302.9,231.5 305.9,231.2 
	306.1,231.2 306.1,231.2 306.1,213.2 306.1,213.1 302.9,212.9 301.3,213.1 300.3,212.9 299.4,213.1 298.7,212.9 297.1,213.1 
	297.1,195.2 297.2,195.2 298.7,195.5 299.4,195.2 299.5,195.2 300.3,195.5 301.2,195.2 301.4,195.2 302.9,195.5 305.9,195.2 
	306.1,195.2 306.1,195.2 306.1,177.2 306.1,177.1 302.9,176.9 301.3,177.1 300.3,176.9 299.4,177.1 298.7,176.9 297.1,177.1 
	297.1,159.2 297.2,159.2 298.7,159.5 299.4,159.2 299.5,159.2 300.3,159.5 301.2,159.2 301.4,159.2 302.9,159.5 305.9,159.2 
	306.1,159.2 306.1,159.2 306.1,141.2 306.1,141.1 302.9,140.9 301.3,141.1 300.3,140.9 299.4,141.1 298.7,140.9 297.1,141.1 
	297.1,123.2 297.2,123.2 298.7,123.5 299.4,123.2 299.5,123.2 300.3,123.5 301.2,123.2 301.4,123.2 302.9,123.5 305.9,123.2 
	306.1,123.2 306.1,123.2 306.1,105.2 306.1,105.1 302.9,104.9 301.3,105.1 300.3,104.9 299.4,105.1 298.7,104.9 297.1,105.1 
	297.1,87.2 297.2,87.2 298.7,87.5 299.4,87.2 299.5,87.2 300.3,87.5 301.2,87.2 301.4,87.2 302.9,87.5 305.9,87.2 306.1,87.2 
	306.1,87.2 306.1,69.2 306.1,69.1 302.9,68.9 301.3,69.1 300.3,68.9 299.4,69.1 298.7,68.9 297.1,69.1 297.1,51.2 297.2,51.2 
	298.7,51.5 299.4,51.2 299.5,51.2 300.3,51.5 301.2,51.2 301.4,51.2 302.9,51.5 305.9,51.2 306.1,51.2 306.1,51.2 306.1,33.2 
	306.1,33.1 "/>
<polygon class="st0" points="597.9,32.9 596.3,33.1 595.3,32.9 594.4,33.1 593.7,32.9 592.1,33.1 592.1,24.2 466.1,24.2 466.1,33.1 
	464.5,32.9 463.8,33.1 462.9,32.9 461.9,33.1 460.3,32.9 457.1,33.1 457.1,33.2 457.1,51.2 457.1,51.2 457.1,51.2 460.3,51.5 
	461.9,51.2 461.9,51.2 462.9,51.5 463.8,51.2 463.8,51.2 464.5,51.5 466.1,51.2 466.1,51.2 466.1,69.1 464.5,68.9 463.8,69.1 
	462.9,68.9 461.9,69.1 460.3,68.9 457.1,69.1 457.1,69.2 457.1,87.2 457.1,87.2 457.1,87.2 460.3,87.5 461.9,87.2 461.9,87.2 
	462.9,87.5 463.8,87.2 463.8,87.2 464.5,87.5 466.1,87.2 466.1,87.2 466.1,105.1 464.5,104.9 463.8,105.1 462.9,104.9 461.9,105.1 
	460.3,104.9 457.1,105.1 457.1,105.2 457.1,123.2 457.1,123.2 457.1,123.2 460.3,123.5 461.9,123.2 461.9,123.2 462.9,123.5 
	463.8,123.2 463.8,123.2 464.5,123.5 466.1,123.2 466.1,123.2 466.1,141.1 464.5,140.9 463.8,141.1 462.9,140.9 461.9,141.1 
	460.3,140.9 457.1,141.1 457.1,141.2 457.1,159.2 457.1,159.2 457.1,159.2 460.3,159.5 461.9,159.2 461.9,159.2 462.9,159.5 
	463.8,159.2 463.8,159.2 464.5,159.5 466.1,159.2 466.1,159.2 466.1,177.1 464.5,176.9 463.8,177.1 462.9,176.9 461.9,177.1 
	460.3,176.9 457.1,177.1 457.1,177.2 457.1,195.2 457.1,195.2 457.1,195.2 460.3,195.5 461.9,195.2 461.9,195.2 462.9,195.5 
	463.8,195.2 463.8,195.2 464.5,195.5 466.1,195.2 466.1,195.2 466.1,213.1 464.5,212.9 463.8,213.1 462.9,212.9 461.9,213.1 
	460.3,212.9 457.1,213.1 457.1,213.2 457.1,231.2 457.1,231.2 457.1,231.2 460.3,231.5 461.9,231.2 461.9,231.2 462.9,231.5 
	463.8,231.2 463.8,231.2 464.5,231.5 466.1,231.2 466.1,231.2 466.1,249.1 464.5,248.9 463.8,249.1 462.9,248.9 461.9,249.1 
	460.3,248.9 457.1,249.1 457.1,249.2 457.1,267.2 457.1,267.2 457.1,267.2 460.3,267.5 461.9,267.2 461.9,267.2 462.9,267.5 
	463.8,267.2 463.8,267.2 464.5,267.5 466.1,267.2 466.1,267.2 466.1,285.1 464.5,284.9 463.8,285.1 462.9,284.9 461.9,285.1 
	460.3,284.9 457.1,285.1 457.1,285.2 457.1,303.2 457.1,303.2 457.1,303.2 460.3,303.5 461.9,303.2 461.9,303.2 462.9,303.5 
	463.8,303.2 463.8,303.2 464.5,303.5 466.1,303.2 466.1,303.2 466.1,321.1 464.5,320.9 463.8,321.1 462.9,320.9 461.9,321.1 
	460.3,320.9 457.1,321.1 457.1,321.2 457.1,331 457.1,339 601.1,339 601.1,330.2 601.1,321.2 601.1,321.1 597.9,320.9 596.3,321.1 
	595.3,320.9 594.4,321.1 593.7,320.9 592.1,321.1 592.1,303.2 592.1,303.2 593.7,303.5 594.4,303.2 594.4,303.2 595.3,303.5 
	596.3,303.2 596.3,303.2 597.9,303.5 601.1,303.2 601.1,303.2 601.1,303.2 601.1,285.2 601.1,285.1 597.9,284.9 596.3,285.1 
	595.3,284.9 594.4,285.1 593.7,284.9 592.1,285.1 592.1,267.2 592.1,267.2 593.7,267.5 594.4,267.2 594.4,267.2 595.3,267.5 
	596.3,267.2 596.3,267.2 597.9,267.5 601.1,267.2 601.1,267.2 601.1,267.2 601.1,249.2 601.1,249.1 597.9,248.9 596.3,249.1 
	595.3,248.9 594.4,249.1 593.7,248.9 592.1,249.1 592.1,231.2 592.1,231.2 593.7,231.5 594.4,231.2 594.4,231.2 595.3,231.5 
	596.3,231.2 596.3,231.2 597.9,231.5 601.1,231.2 601.1,231.2 601.1,231.2 601.1,213.2 601.1,213.1 597.9,212.9 596.3,213.1 
	595.3,212.9 594.4,213.1 593.7,212.9 592.1,213.1 592.1,195.2 592.1,195.2 593.7,195.5 594.4,195.2 594.4,195.2 595.3,195.5 
	596.3,195.2 596.3,195.2 597.9,195.5 601.1,195.2 601.1,195.2 601.1,195.2 601.1,177.2 601.1,177.1 597.9,176.9 596.3,177.1 
	595.3,176.9 594.4,177.1 593.7,176.9 592.1,177.1 592.1,159.2 592.1,159.2 593.7,159.5 594.4,159.2 594.4,159.2 595.3,159.5 
	596.3,159.2 596.3,159.2 597.9,159.5 601.1,159.2 601.1,159.2 601.1,159.2 601.1,141.2 601.1,141.1 597.9,140.9 596.3,141.1 
	595.3,140.9 594.4,141.1 593.7,140.9 592.1,141.1 592.1,123.2 592.1,123.2 593.7,123.5 594.4,123.2 594.4,123.2 595.3,123.5 
	596.3,123.2 596.3,123.2 597.9,123.5 601.1,123.2 601.1,123.2 601.1,123.2 601.1,105.2 601.1,105.1 597.9,104.9 596.3,105.1 
	595.3,104.9 594.4,105.1 593.7,104.9 592.1,105.1 592.1,87.2 592.1,87.2 593.7,87.5 594.4,87.2 594.4,87.2 595.3,87.5 596.3,87.2 
	596.3,87.2 597.9,87.5 601.1,87.2 601.1,87.2 601.1,87.2 601.1,69.2 601.1,69.1 597.9,68.9 596.3,69.1 595.3,68.9 594.4,69.1 
	593.7,68.9 592.1,69.1 592.1,51.2 592.1,51.2 593.7,51.5 594.4,51.2 594.4,51.2 595.3,51.5 596.3,51.2 596.3,51.2 597.9,51.5 
	601.1,51.2 601.1,51.2 601.1,51.2 601.1,33.2 601.1,33.1 "/>
<polygon class="st0" points="745.1,338.8 743.5,339 742.5,338.8 741.6,339 740.8,338.8 739.3,339 739.3,312.2 613.3,312.1 
	613.3,339 613.3,339 613.3,339 611.7,338.8 610.9,339 610,338.8 609,339 607.4,338.8 604.3,339 604.3,339.1 604.2,357 604.3,357 
	607.4,357.4 609,357 609.1,357 610,357.4 610.9,357 611,357 611.7,357.4 613.2,357 613.2,357 613.2,375 611.7,374.8 610.9,375 
	610,374.8 609,375 607.4,374.8 604.3,375 604.3,375 604.2,375 604.2,393 604.3,393 607.4,393.4 609,393 609.1,393 610,393.4 
	610.9,393 611,393 611.7,393.4 613.2,393 613.2,411 611.7,410.8 610.9,411 610,410.8 609,411 607.4,410.8 604.3,411 604.3,411 
	604.2,411 604.2,429 604.3,429 607.4,429.4 609,429 609.1,429 610,429.4 610.9,429 611,429 611.7,429.4 613.2,429.1 613.1,447 
	631.1,447.1 631.1,447.4 630.9,448.7 631.1,449.4 631.1,449.6 630.9,450.4 631.1,451.2 631.1,451.6 630.9,453 631.1,455.7 
	631.1,456.1 631.2,456.1 631.2,456.2 649.2,456.2 649.5,453 649.2,451.4 649.5,450.4 649.2,449.5 649.5,448.7 649.2,447.2 
	649.1,447.2 649.1,447.1 667.1,447.1 667.1,447.4 666.9,448.7 667.1,449.4 667.1,449.6 666.9,450.4 667.1,451.2 667.1,451.6 
	666.9,453 667.1,455.7 667.1,456.1 667.2,456.1 667.2,456.2 685.2,456.2 685.5,453 685.2,451.4 685.5,450.4 685.2,449.5 
	685.5,448.7 685.2,447.2 685.1,447.2 685.1,447.1 703.1,447.1 703.1,447.3 702.9,448.7 703.1,449.4 703.1,449.6 702.9,450.4 
	703.1,451.2 703.1,451.6 702.9,453 703.1,455.7 703.1,456.1 703.2,456.1 703.2,456.2 721.2,456.2 721.5,453 721.2,451.4 
	721.5,450.4 721.2,449.5 721.5,448.7 721.2,447.2 739.1,447.2 739.2,429.2 740,429.2 740.8,429.4 741.2,429.2 742,429.2 
	742.5,429.4 743,429.2 744.2,429.2 745.1,429.4 746.7,429.2 748.2,429.2 748.2,429 748.3,429 748.3,411 745.1,410.8 743.5,411 
	742.5,410.8 741.6,411 740.8,410.8 739.3,411 739.3,411.2 739.2,411.2 739.2,393.2 740,393.2 740.8,393.4 741.2,393.2 742,393.2 
	742.5,393.4 743,393.2 744.2,393.2 745.1,393.4 746.7,393.2 748.2,393.2 748.2,393 748.3,393 748.3,375 745.1,374.8 743.5,375 
	742.5,374.8 741.6,375 740.8,374.8 739.3,375 739.3,375.2 739.2,375.2 739.2,357.2 740,357.2 740.8,357.4 741.2,357.2 742,357.2 
	742.5,357.4 743,357.2 744.2,357.2 745.1,357.4 746.7,357.2 748.2,357.2 748.2,357 748.3,357 748.3,339 "/>
<g>
	<polygon class="st0" points="318.6,33.5 318.6,50.7 309.6,50.7 309.6,69.5 318.6,69.5 318.6,86.7 309.6,86.7 309.6,105.5 
		318.6,105.5 318.6,122.7 309.6,122.7 309.6,141.5 318.6,141.5 318.6,158.7 309.6,158.7 309.6,177.5 318.6,177.5 318.6,194.7 
		309.6,194.7 309.6,213.5 318.6,213.5 318.6,230.7 309.6,230.7 309.6,249.5 318.6,249.5 318.6,266.7 309.6,266.7 309.6,285.5 
		318.6,285.5 318.6,302.7 309.6,302.7 309.6,321.5 318.6,321.5 318.6,338.7 309.6,338.7 309.6,357.5 318.6,357.5 318.6,374.7 
		309.6,374.7 309.6,393.5 318.6,393.5 318.6,410.7 309.6,410.7 309.6,429.5 318.6,429.5 318.6,446.7 309.6,446.7 309.6,456.2 
		336.9,456.2 336.9,447.2 354.3,447.2 354.3,456.2 372.9,456.2 372.9,447.2 390.3,447.2 390.3,456.2 408.9,456.2 408.9,447.2 
		426.3,447.2 426.3,456.2 453.6,456.2 453.6,338.7 444.6,338.7 444.6,321.5 453.6,321.5 453.6,302.7 444.6,302.7 444.6,285.5 
		453.6,285.5 453.6,266.7 444.6,266.7 444.6,249.5 453.6,249.5 453.6,230.7 444.6,230.7 444.6,213.5 453.6,213.5 453.6,194.7 
		444.6,194.7 444.6,177.5 453.6,177.5 453.6,158.7 444.6,158.7 444.6,141.5 453.6,141.5 453.6,122.7 444.6,122.7 444.6,105.5 
		453.6,105.5 453.6,86.7 444.6,86.7 444.6,69.5 453.6,69.5 453.6,50.7 444.6,50.7 444.6,33.5 453.6,33.5 453.6,24.2 309.6,24.2 
		309.6,33.5 	"/>
	<g>
		<rect x="376.4" y="398.6" transform="matrix(-0.866 -0.5 0.5 -0.866 517.5635 944.8651)" class="st0" width="18" height="9"/>
		<rect x="345.2" y="380.6" transform="matrix(-0.866 -0.5 0.5 -0.866 468.3864 895.6882)" class="st0" width="18" height="9"/>
		<rect x="407.5" y="416.6" transform="matrix(-0.866 -0.5 0.5 -0.866 566.7405 994.0419)" class="st0" width="18" height="9"/>
	</g>
	<g>
		
			<rect x="328.5" y="165.8" transform="matrix(-0.8192 -0.5736 0.5736 -0.8192 516.2308 503.3204)" class="st0" width="18" height="9"/>
		
			<rect x="358" y="186.4" transform="matrix(-0.8192 -0.5736 0.5736 -0.8192 558.0331 557.798)" class="st0" width="18" height="9"/>
	</g>
	<g>
		
			<rect x="417.1" y="260.9" transform="matrix(0.8192 -0.5736 0.5736 0.8192 -75.1954 292.3875)" class="st0" width="18" height="9"/>
		
			<rect x="387.6" y="281.6" transform="matrix(0.8192 -0.5736 0.5736 0.8192 -92.372 279.2074)" class="st0" width="18" height="9"/>
	</g>
	<g>
		<rect x="417.1" y="65.7" transform="matrix(0.8192 -0.5736 0.5736 0.8192 36.8053 257.0741)" class="st0" width="18" height="9"/>
		<rect x="387.6" y="86.3" transform="matrix(0.8192 -0.5736 0.5736 0.8192 19.6287 243.894)" class="st0" width="18" height="9"/>
	</g>
</g>
<polygon class="st0" points="1261.6,444.2 1258.5,444 1257,444.2 1256.9,444.2 1255.9,444 1255.1,444.2 1255,444.2 1254.3,444 
	1252.8,444.2 1252.7,444.2 1252.7,438.5 820.7,438.5 820.7,444.2 819.1,443.9 818.4,444.2 817.5,443.9 816.5,444.2 814.9,443.9 
	811.7,444.2 811.7,444.2 811.7,458.6 811.7,458.6 811.9,458.6 814.9,458.9 816.4,458.6 816.6,458.6 817.5,458.9 818.3,458.6 
	818.4,458.6 819.1,458.9 820.6,458.6 820.7,458.6 820.7,463.5 820.7,463.5 819.1,463.3 818.4,463.5 818.4,463.5 817.5,463.3 
	816.5,463.5 816.5,463.5 814.9,463.3 811.8,463.5 811.7,463.5 811.7,463.5 811.7,477.9 811.7,477.9 811.7,477.9 814.9,478.3 
	816.5,477.9 816.5,477.9 817.5,478.3 818.4,477.9 818.4,477.9 819.1,478.3 820.7,477.9 820.7,477.9 820.7,482.7 820.5,482.7 
	819.1,482.5 818.5,482.7 818.3,482.7 817.5,482.5 816.6,482.7 816.3,482.7 814.9,482.5 812,482.7 811.7,482.7 811.7,482.8 
	811.7,497.1 811.7,497.2 814.9,497.5 816.5,497.2 817.5,497.5 818.4,497.2 819.1,497.5 820.7,497.2 820.7,501.5 829.5,501.5 
	829.3,503.1 829.5,503.8 829.3,504.7 829.5,505.7 829.3,507.3 829.5,510.5 829.6,510.5 847.8,510.5 847.9,510.5 847.9,510.3 
	848.2,507.3 847.9,505.9 847.9,505.6 848.2,504.7 847.9,503.9 847.9,503.8 848.2,503.1 847.9,501.7 847.9,501.5 865.5,501.5 
	865.3,503.1 865.5,503.8 865.3,504.7 865.5,505.7 865.3,507.3 865.5,510.5 865.6,510.5 883.8,510.5 883.9,510.5 883.9,510.3 
	884.2,507.3 883.9,505.9 883.9,505.6 884.2,504.7 883.9,503.9 883.9,503.8 884.2,503.1 883.9,501.7 883.9,501.5 901.5,501.5 
	901.3,503.1 901.5,503.8 901.3,504.7 901.5,505.7 901.3,507.3 901.5,510.5 901.6,510.5 919.8,510.5 919.9,510.5 919.9,510.3 
	920.2,507.3 919.9,505.9 919.9,505.6 920.2,504.7 919.9,503.9 919.9,503.8 920.2,503.1 919.9,501.7 919.9,501.5 937.5,501.5 
	937.3,503.1 937.5,503.8 937.3,504.7 937.5,505.7 937.3,507.3 937.5,510.5 937.6,510.5 955.8,510.5 955.9,510.5 955.9,510.3 
	956.2,507.3 955.9,505.9 955.9,505.6 956.2,504.7 955.9,503.9 955.9,503.8 956.2,503.1 955.9,501.7 955.9,501.5 973.5,501.5 
	973.3,503.1 973.5,503.8 973.3,504.7 973.5,505.7 973.3,507.3 973.5,510.5 973.6,510.5 991.8,510.5 991.9,510.5 991.9,510.3 
	992.2,507.3 991.9,505.9 991.9,505.6 992.2,504.7 991.9,503.9 991.9,503.8 992.2,503.1 991.9,501.7 991.9,501.5 1009.5,501.5 
	1009.3,503.1 1009.5,503.8 1009.3,504.7 1009.5,505.7 1009.3,507.3 1009.5,510.5 1009.6,510.5 1027.8,510.5 1027.9,510.5 
	1027.9,510.3 1028.2,507.3 1027.9,505.9 1027.9,505.6 1028.2,504.7 1027.9,503.9 1027.9,503.8 1028.2,503.1 1027.9,501.7 
	1027.9,501.5 1045.5,501.5 1045.3,503.1 1045.5,503.8 1045.3,504.7 1045.5,505.7 1045.3,507.3 1045.5,510.5 1045.6,510.5 
	1063.8,510.5 1063.9,510.5 1063.9,510.3 1064.2,507.3 1063.9,505.9 1063.9,505.6 1064.2,504.7 1063.9,503.9 1063.9,503.8 
	1064.2,503.1 1063.9,501.7 1063.9,501.5 1081.5,501.5 1081.3,503.1 1081.5,503.8 1081.3,504.7 1081.5,505.7 1081.3,507.3 
	1081.5,510.5 1081.6,510.5 1099.8,510.5 1099.9,510.5 1099.9,510.3 1100.2,507.3 1099.9,505.9 1099.9,505.6 1100.2,504.7 
	1099.9,503.9 1099.9,503.8 1100.2,503.1 1099.9,501.7 1099.9,501.5 1117.5,501.5 1117.3,503.1 1117.5,503.8 1117.3,504.7 
	1117.5,505.7 1117.3,507.3 1117.5,510.5 1117.6,510.5 1135.8,510.5 1135.9,510.5 1135.9,510.3 1136.2,507.3 1135.9,505.9 
	1135.9,505.6 1136.2,504.7 1135.9,503.9 1135.9,503.8 1136.2,503.1 1135.9,501.7 1135.9,501.5 1153.5,501.5 1153.3,503.1 
	1153.5,503.8 1153.3,504.7 1153.5,505.7 1153.3,507.3 1153.5,510.5 1153.6,510.5 1171.8,510.5 1171.9,510.5 1171.9,510.3 
	1172.2,507.3 1171.9,505.9 1171.9,505.6 1172.2,504.7 1171.9,503.9 1171.9,503.8 1172.2,503.1 1171.9,501.7 1171.9,501.5 
	1189.5,501.5 1189.3,503.1 1189.5,503.8 1189.3,504.7 1189.5,505.7 1189.3,507.3 1189.5,510.5 1189.6,510.5 1207.8,510.5 
	1207.9,510.5 1207.9,510.3 1208.2,507.3 1207.9,505.9 1207.9,505.6 1208.2,504.7 1207.9,503.9 1207.9,503.8 1208.2,503.1 
	1207.9,501.7 1207.9,501.5 1225.5,501.5 1225.3,503.1 1225.5,503.8 1225.3,504.7 1225.5,505.7 1225.3,507.3 1225.5,510.5 
	1225.6,510.5 1243.8,510.5 1243.9,510.5 1243.9,510.3 1244.2,507.3 1243.9,505.9 1243.9,505.6 1244.2,504.7 1243.9,503.9 
	1243.9,503.8 1244.2,503.1 1243.9,501.7 1243.9,501.5 1252.7,501.5 1252.7,497.2 1252.7,497.2 1254.3,497.5 1255,497.2 1255,497.2 
	1255.9,497.5 1256.9,497.2 1256.9,497.2 1258.5,497.5 1261.7,497.2 1261.7,497.2 1261.7,497.2 1261.7,482.8 1261.7,482.8 
	1258.5,482.5 1256.9,482.8 1255.9,482.5 1255,482.8 1254.3,482.5 1252.7,482.8 1252.7,478 1254.3,478.3 1255,478 1255.9,478.3 
	1256.9,478 1258.5,478.3 1261.7,478 1261.7,477.9 1261.7,473.2 1261.7,463.5 1261.7,463.5 1261.3,463.5 1258.5,463.3 1257.1,463.5 
	1256.8,463.5 1255.9,463.3 1255.1,463.5 1254.9,463.5 1254.3,463.3 1252.9,463.5 1252.7,463.5 1252.7,458.6 1254.3,459 1255,458.6 
	1255.9,459 1256.9,458.6 1258.5,459 1261.7,458.6 1261.7,458.6 1261.7,444.2 1261.7,444.2 "/>
<polygon class="st0" points="781.4,521.5 781.4,512.5 775.6,512.5 775.6,521.5 762.1,521.5 762.1,512.5 756.3,512.5 756.3,521.5 
	742.8,521.5 742.8,512.5 736.7,512.5 736.7,676.8 742.8,676.8 742.8,667.8 756.3,667.8 756.3,676.8 762.1,676.8 762.1,667.8 
	775.6,667.8 775.6,676.8 781.4,676.8 781.4,667.8 794.9,667.8 794.9,676.8 799.7,676.8 799.7,657.8 801.3,658 802,657.8 802.9,658 
	803.9,657.8 805.5,658 808.7,657.8 808.7,657.7 808.7,639.5 808.7,639.4 808.2,639.4 805.5,639.1 804.2,639.4 803.8,639.4 
	802.9,639.1 802.2,639.4 801.9,639.4 801.3,639.1 800,639.4 799.7,639.4 799.7,621.8 801.3,622 802,621.8 802.9,622 803.9,621.8 
	805.5,622 808.7,621.8 808.7,621.7 808.7,603.5 808.7,603.4 808.2,603.4 805.5,603.1 804.2,603.4 803.8,603.4 802.9,603.1 
	802.2,603.4 801.9,603.4 801.3,603.1 800,603.4 799.7,603.4 799.7,585.8 801.3,586 802,585.8 802.9,586 803.9,585.8 805.5,586 
	808.7,585.8 808.7,585.7 808.7,567.5 808.7,567.4 808.2,567.4 805.5,567.1 804.2,567.4 803.8,567.4 802.9,567.1 802.2,567.4 
	801.9,567.4 801.3,567.1 800,567.4 799.7,567.4 799.7,549.8 801.3,550 802,549.8 802.9,550 803.9,549.8 805.5,550 808.7,549.8 
	808.7,549.7 808.7,531.5 808.7,531.4 808.2,531.4 805.5,531.1 804.2,531.4 803.8,531.4 802.9,531.1 802.2,531.4 801.9,531.4 
	801.3,531.1 800,531.4 799.7,531.4 799.7,512.5 794.9,512.5 794.9,521.5 "/>
<polygon class="st0" points="811.8,745.1 814.9,745.3 816.4,745.1 816.5,745.1 817.5,745.3 818.3,745.1 818.4,745.1 819.1,745.3 
	820.6,745.1 820.7,745.1 820.7,750.7 1252.7,750.7 1252.7,745.1 1254.3,745.3 1255,745.1 1255.9,745.3 1256.9,745.1 1258.5,745.3 
	1261.7,745.1 1261.7,745.1 1261.7,730.7 1261.7,730.6 1261.5,730.6 1258.5,730.3 1257,730.6 1256.8,730.6 1255.9,730.3 
	1255.1,730.6 1255,730.6 1254.3,730.3 1252.8,730.6 1252.7,730.6 1252.7,725.8 1252.7,725.8 1254.3,726 1255,725.8 1255,725.8 
	1255.9,726 1256.9,725.8 1256.9,725.8 1258.5,726 1261.6,725.8 1261.7,725.8 1261.7,725.7 1261.7,711.3 1261.7,711.3 1261.7,711.3 
	1258.5,711 1256.9,711.3 1256.9,711.3 1255.9,711 1255,711.3 1255,711.3 1254.3,711 1252.7,711.3 1252.7,711.3 1252.7,706.5 
	1252.9,706.5 1254.3,706.8 1254.9,706.5 1255.1,706.5 1255.9,706.8 1256.8,706.5 1257.1,706.5 1258.5,706.8 1261.4,706.5 
	1261.7,706.5 1261.7,706.5 1261.7,692.1 1261.7,692.1 1258.5,691.8 1256.9,692.1 1255.9,691.8 1255,692.1 1254.3,691.8 
	1252.7,692.1 1252.7,687.7 1243.9,687.7 1244.1,686.2 1243.9,685.4 1244.1,684.5 1243.9,683.5 1244.1,681.9 1243.9,678.7 
	1243.8,678.7 1225.6,678.7 1225.6,678.7 1225.6,679 1225.2,681.9 1225.6,683.4 1225.6,683.6 1225.2,684.5 1225.6,685.3 
	1225.6,685.5 1225.2,686.2 1225.6,687.6 1225.6,687.7 1207.9,687.7 1208.1,686.2 1207.9,685.4 1208.1,684.5 1207.9,683.5 
	1208.1,681.9 1207.9,678.7 1207.8,678.7 1189.6,678.7 1189.6,678.7 1189.6,679 1189.2,681.9 1189.6,683.4 1189.6,683.6 
	1189.2,684.5 1189.6,685.3 1189.6,685.5 1189.2,686.2 1189.6,687.6 1189.6,687.7 1171.9,687.7 1172.1,686.2 1171.9,685.4 
	1172.1,684.5 1171.9,683.5 1172.1,681.9 1171.9,678.7 1171.8,678.7 1153.6,678.7 1153.6,678.7 1153.6,679 1153.2,681.9 
	1153.6,683.4 1153.6,683.6 1153.2,684.5 1153.6,685.3 1153.6,685.5 1153.2,686.2 1153.6,687.6 1153.6,687.7 1135.9,687.7 
	1136.1,686.2 1135.9,685.4 1136.1,684.5 1135.9,683.5 1136.1,681.9 1135.9,678.7 1135.8,678.7 1117.6,678.7 1117.6,678.7 
	1117.6,679 1117.2,681.9 1117.6,683.4 1117.6,683.6 1117.2,684.5 1117.6,685.3 1117.6,685.5 1117.2,686.2 1117.6,687.6 
	1117.6,687.7 1099.9,687.7 1100.1,686.2 1099.9,685.4 1100.1,684.5 1099.9,683.5 1100.1,681.9 1099.9,678.7 1099.8,678.7 
	1081.6,678.7 1081.6,678.7 1081.6,679 1081.2,681.9 1081.6,683.4 1081.6,683.6 1081.2,684.5 1081.6,685.3 1081.6,685.5 
	1081.2,686.2 1081.6,687.6 1081.6,687.7 1063.9,687.7 1064.1,686.2 1063.9,685.4 1064.1,684.5 1063.9,683.5 1064.1,681.9 
	1063.9,678.7 1063.8,678.7 1045.6,678.7 1045.6,678.7 1045.6,679 1045.2,681.9 1045.6,683.4 1045.6,683.6 1045.2,684.5 
	1045.6,685.3 1045.6,685.5 1045.2,686.2 1045.6,687.6 1045.6,687.7 1027.9,687.7 1028.1,686.2 1027.9,685.4 1028.1,684.5 
	1027.9,683.5 1028.1,681.9 1027.9,678.7 1027.8,678.7 1009.6,678.7 1009.6,678.7 1009.6,679 1009.2,681.9 1009.6,683.4 
	1009.6,683.6 1009.2,684.5 1009.6,685.3 1009.6,685.5 1009.2,686.2 1009.6,687.6 1009.6,687.7 991.9,687.7 992.1,686.2 991.9,685.4 
	992.1,684.5 991.9,683.5 992.1,681.9 991.9,678.7 991.8,678.7 973.6,678.7 973.6,678.7 973.6,679 973.2,681.9 973.6,683.4 
	973.6,683.6 973.2,684.5 973.6,685.3 973.6,685.5 973.2,686.2 973.6,687.6 973.6,687.7 955.9,687.7 956.1,686.2 955.9,685.4 
	956.1,684.5 955.9,683.5 956.1,681.9 955.9,678.7 955.8,678.7 937.6,678.7 937.6,678.7 937.6,679 937.2,681.9 937.6,683.4 
	937.6,683.6 937.2,684.5 937.6,685.3 937.6,685.5 937.2,686.2 937.6,687.6 937.6,687.7 919.9,687.7 920.1,686.2 919.9,685.4 
	920.1,684.5 919.9,683.5 920.1,681.9 919.9,678.7 919.8,678.7 901.6,678.7 901.6,678.7 901.6,679 901.2,681.9 901.6,683.4 
	901.6,683.6 901.2,684.5 901.6,685.3 901.6,685.5 901.2,686.2 901.6,687.6 901.6,687.7 883.9,687.7 884.1,686.2 883.9,685.4 
	884.1,684.5 883.9,683.5 884.1,681.9 883.9,678.7 883.8,678.7 865.6,678.7 865.6,678.7 865.6,679 865.2,681.9 865.6,683.4 
	865.6,683.6 865.2,684.5 865.6,685.3 865.6,685.5 865.2,686.2 865.6,687.6 865.6,687.7 847.9,687.7 848.1,686.2 847.9,685.4 
	848.1,684.5 847.9,683.5 848.1,681.9 847.9,678.7 847.8,678.7 829.6,678.7 829.6,678.7 829.6,679 829.2,681.9 829.6,683.4 
	829.6,683.6 829.2,684.5 829.6,685.3 829.6,685.5 829.2,686.2 829.6,687.6 829.6,687.7 820.7,687.7 820.7,692.1 820.7,692.1 
	819.1,691.7 818.4,692.1 818.4,692.1 817.5,691.7 816.5,692.1 816.5,692.1 814.9,691.7 811.7,692.1 811.7,692.1 811.7,692.1 
	811.7,706.5 811.7,706.5 814.9,706.7 816.5,706.5 817.5,706.7 818.4,706.5 819.1,706.7 820.7,706.5 820.7,711.3 819.1,711 
	818.4,711.3 817.5,711 816.5,711.3 814.9,711 811.7,711.3 811.7,711.3 811.7,716.1 811.7,725.7 811.7,725.8 812.1,725.8 814.9,726 
	816.3,725.8 816.6,725.8 817.5,726 818.3,725.8 818.5,725.8 819.1,726 820.5,725.8 820.7,725.8 820.7,730.6 819.1,730.3 
	818.4,730.6 817.5,730.3 816.5,730.6 814.9,730.3 811.7,730.6 811.7,730.6 811.7,745 811.7,745.1 "/>
<polygon class="st0" points="1292,667.8 1292,676.8 1297.8,676.8 1297.8,667.8 1311.3,667.8 1311.3,676.8 1317.1,676.8 
	1317.1,667.8 1330.6,667.8 1330.6,676.8 1336.7,676.8 1336.7,512.5 1330.6,512.5 1330.6,521.5 1317.1,521.5 1317.1,512.5 
	1311.3,512.5 1311.3,521.5 1297.8,521.5 1297.8,512.5 1292,512.5 1292,521.5 1278.5,521.5 1278.5,512.5 1273.7,512.5 1273.7,531.5 
	1272.1,531.2 1271.4,531.5 1270.5,531.2 1269.5,531.5 1267.9,531.2 1264.7,531.5 1264.7,531.6 1264.7,549.8 1264.7,549.8 
	1265.2,549.8 1267.9,550.1 1269.2,549.8 1269.6,549.8 1270.5,550.1 1271.2,549.8 1271.5,549.8 1272.1,550.1 1273.4,549.8 
	1273.7,549.8 1273.7,567.5 1272.1,567.2 1271.4,567.5 1270.5,567.2 1269.5,567.5 1267.9,567.2 1264.7,567.5 1264.7,567.6 
	1264.7,585.8 1264.7,585.8 1265.2,585.8 1267.9,586.1 1269.2,585.8 1269.6,585.8 1270.5,586.1 1271.2,585.8 1271.5,585.8 
	1272.1,586.1 1273.4,585.8 1273.7,585.8 1273.7,603.5 1272.1,603.2 1271.4,603.5 1270.5,603.2 1269.5,603.5 1267.9,603.2 
	1264.7,603.5 1264.7,603.6 1264.7,621.8 1264.7,621.8 1265.2,621.8 1267.9,622.1 1269.2,621.8 1269.6,621.8 1270.5,622.1 
	1271.2,621.8 1271.5,621.8 1272.1,622.1 1273.4,621.8 1273.7,621.8 1273.7,639.5 1272.1,639.2 1271.4,639.5 1270.5,639.2 
	1269.5,639.5 1267.9,639.2 1264.7,639.5 1264.7,639.6 1264.7,657.8 1264.7,657.8 1265.2,657.8 1267.9,658.1 1269.2,657.8 
	1269.6,657.8 1270.5,658.1 1271.2,657.8 1271.5,657.8 1272.1,658.1 1273.4,657.8 1273.7,657.8 1273.7,676.8 1278.5,676.8 
	1278.5,667.8 "/>
<g>
</g>
<g>
</g>
<g>
</g>
<g>
</g>
<g>
</g>
</svg>
