<?xml version="1.0" encoding="utf-8"?>
<!-- Generator: Adobe Illustrator 22.1.0, SVG Export Plug-In . SVG Version: 6.00 Build 0)  -->
<svg version="1.1" id="Layer_1" xmlns="http://www.w3.org/2000/svg" xmlns:xlink="http://www.w3.org/1999/xlink" x="0px" y="0px"
	 width="1368px" height="792px" viewBox="0 0 1368 792" style="enable-background:new 0 0 1368 792;" xml:space="preserve">
<style type="text/css">
	.st0{fill:none;stroke:#FF0000;stroke-miterlimit:10;}
</style>
<g>
	<circle class="st0" cx="262.8" cy="199.4" r="10.8"/>
	<circle class="st0" cx="766.8" cy="199.4" r="10.8"/>
</g>
<g>
	<circle class="st0" cx="262.8" cy="541.4" r="10.8"/>
	<circle class="st0" cx="766.8" cy="541.4" r="10.8"/>
</g>
<path class="st0" d="M918,144H108c-19.9,0-36,16.1-36,36v378c0,19.9,16.1,36,36,36h810c19.9,0,36-16.1,36-36V180
	C954,160.1,937.9,144,918,144z"/>
<path class="st0" d="M918,197.9c0-5-4-9-9-9h-50.7c-47.6,0-68.1,36-84.3,36c-167.5,0-386.6,0.1-522,0.1c-16.3,0-36.8-36-84.3-36H117
	c-5,0-9,4-9,9v363.6c0,5,4,9,9,9h112.1c4.7,0,8.5-3.8,8.5-8.5c0-8.4,0-19.2,0-22l0,0c0.7-13.3,11.8-23.8,25.2-23.8
	c13.4,0,24.4,10.5,25.2,23.8h0v22.2c0,4.6,3.8,8.4,8.4,8.4h436.3c4.9,0,8.9-4,8.9-8.9V540h0c0.7-13.3,11.7-23.8,25.2-23.8
	c13.4,0,24.4,10.5,25.2,23.8h0v21.7c0,4.9,4,8.9,8.9,8.9H909c5,0,9-4,9-9V197.9z"/>
<g>
</g>
<g>
</g>
<g>
</g>
<g>
</g>
<g>
</g>
</svg>
