<?xml version="1.0" encoding="utf-8"?>
<!-- Generator: Adobe Illustrator 22.1.0, SVG Export Plug-In . SVG Version: 6.00 Build 0)  -->
<svg version="1.1" id="Layer_1" xmlns="http://www.w3.org/2000/svg" xmlns:xlink="http://www.w3.org/1999/xlink" x="0px" y="0px"
	 width="1368px" height="792px" viewBox="0 0 1368 792" style="enable-background:new 0 0 1368 792;" xml:space="preserve">
<style type="text/css">
	.st0{fill:none;stroke:#FF0000;stroke-miterlimit:10;}
	.st1{fill:none;stroke:#0000FF;stroke-miterlimit:10;}
</style>
<g>
	<circle class="st0" cx="262.8" cy="199.4" r="10.8"/>
	<circle class="st0" cx="766.8" cy="199.4" r="10.8"/>
</g>
<g>
	<circle class="st0" cx="262.8" cy="541.4" r="10.8"/>
	<circle class="st0" cx="766.8" cy="541.4" r="10.8"/>
</g>
<path class="st0" d="M918,144H108c-19.9,0-36,16.1-36,36v378c0,19.9,16.1,36,36,36h810c19.9,0,36-16.1,36-36V180
	C954,160.1,937.9,144,918,144z"/>
<path class="st0" d="M918,197.9c0-5-4-9-9-9h-50.7c-47.6,0-68.1,36-84.3,36c-167.5,0-386.6,0.1-522,0.1c-16.3,0-36.8-36-84.3-36H117
	c-5,0-9,4-9,9v363.6c0,5,4,9,9,9h112.1c4.7,0,8.5-3.8,8.5-8.5c0-8.4,0-19.2,0-22l0,0c0.7-13.3,11.8-23.8,25.2-23.8
	c13.4,0,24.4,10.5,25.2,23.8h0v22.2c0,4.6,3.8,8.4,8.4,8.4h436.3c4.9,0,8.9-4,8.9-8.9V540h0c0.7-13.3,11.7-23.8,25.2-23.8
	c13.4,0,24.4,10.5,25.2,23.8h0v21.7c0,4.9,4,8.9,8.9,8.9H909c5,0,9-4,9-9V197.9z"/>
<g>
	<path class="st1" d="M694.5,188.7c16.3,10.2,32.6,20.5,49,30.7c-0.9,1.1-1.8,0.8-2.6,0.8c-12.8,0-25.6,0-38.3,0.1
		c-2.4,0-4.3-0.6-6.2-2.1c-13.3-10.8-26.5-21.5-39.9-32.2c-1.5-1.2-1.6-2-0.7-3.8c1.8-3.5,4.4-4.9,8.4-5c8.5-0.4,17.1-0.9,25.5-2
		c5.2-0.7,9.9-2.4,13.9-5.8c1.1-0.9,2.5-1.9,2.2-3.6c-0.3-1.7-2-1.8-3.2-2.2c-2.7-0.8-5.6-1.1-8.4-1.1c-9.8,0-19.5,0-29.3-0.1
		c-1.7,0-2.6,0.5-3.5,1.9c-8.8,14.4-17.7,28.8-26.5,43.3c-1,1.6-2,2.2-3.9,2.2c-8.9-0.1-17.8,0-26.7,0c-3,0-3.1-0.2-1.5-2.7
		c7.9-12.9,15.8-25.7,23.7-38.5c2.4-3.8,2.2-5.1-1.2-7.8c-3.1-2.6-6.3-5.1-9.4-7.7c-0.5-0.4-1.5-0.8-1-1.8c0.4-0.8,1.1-1,2-1
		c1.7,0,3.5,0,5.2,0c28.7,0,57.3,0,86,0c7.9,0,15.7,0.7,22.9,4.5c6.8,3.6,8,7.4,3.3,13.4c-9.3,11.9-20.7,20.2-36.8,19.6
		c-0.8,0-1.7,0.1-2.5,0.1C694.7,188.2,694.6,188.5,694.5,188.7z"/>
	<g>
		<path class="st1" d="M585.1,182.9c-1.1,3.3-2.6,5.1-6.5,5c-10.6-0.3-21.1-0.1-31.7-0.1c-3.2,0-5.9,2.9-6.1,6.5
			c-0.2,2.8,2.3,5.1,5.8,5.1c10.3,0.1,20.7,0,31,0.1c1.2,0,3.6-0.9,3.4,0.7c-0.2,1.9-1.2,4.3-3.8,4.9c-0.7,0.2-1.4,0-2.1,0
			c-14.7,0-29.5,0-44.2,0c-2.6,0-5.1,0-7.6-0.9c-4.2-1.5-5.8-4.5-4.7-8.7c0.5-2,1.5-3.9,2.6-5.7c4.3-6.6,8.6-13.2,12.8-19.9
			c1.5-2.4,3.5-3.5,6.3-3.5c17.9,0,35.8,0,53.6,0c0.8,0,1.8-0.4,2.2,0.4c0.6,1-0.6,1.6-0.9,2.4c-1,2.3-2.7,3-5.2,3
			c-10.8-0.2-21.6,0.1-32.4-0.2c-3.9-0.1-6.5,0.9-8.1,4.4c-0.8,1.8-3.5,3.4-2.4,5.4c1,1.7,3.6,0.7,5.5,0.7c9.8,0.1,19.5,0,29.3,0
			C583.2,182.7,584,182.8,585.1,182.9z"/>
		<path class="st1" d="M493.5,166.5c8.4,0,16.7-0.1,25.1,0c6.6,0.1,8.4,3.2,5,8.9c-3.7,6.1-7.7,12-14.9,14.4
			c-3.5,1.2-7,1.4-10.6,1.4c-8.7,0-17.4,0.1-26.1-0.1c-2.4,0-3.8,0.8-5,2.8c-2.4,3.7-3.8,9.3-7.5,10.5c-5.2,1.7-11.2,0.6-16.9,0.6
			c-2.7,0-1.3-1.4-0.7-2.4c4.9-7.6,9.8-15.2,14.7-22.8c2.1-3.2,4.2-6.4,6.2-9.7c1.6-2.7,3.6-3.8,6.8-3.8
			C477.5,166.6,485.5,166.5,493.5,166.5C493.5,166.5,493.5,166.5,493.5,166.5z M484.9,185.3C484.9,185.3,484.9,185.3,484.9,185.3
			c3.2,0,6.5,0,9.7,0c4.4-0.1,7.8-2.1,10.2-5.7c1.2-1.8,2.5-3.8,1.3-6.1c-1.2-2.2-3.5-2.5-5.7-2.6c-5.4,0-10.9,0-16.3,0
			c-1.4,0-2.4,0.3-3.2,1.5c-2.3,3.6-4.6,7.2-7,10.8c-1.1,1.7-0.5,2.2,1.3,2.1C478.5,185.3,481.7,185.3,484.9,185.3z"/>
		<path class="st1" d="M453.1,167.2c-9.3,5.1-18.7,10.3-28,15.4c-2.9,1.6-5.8,3.5-8.9,4.8c-5.1,2.1-7.5,6.2-9.9,10.7
			c-1.3,2.3-3.1,4.4-4.8,6.5c-0.3,0.4-1,0.6-1.5,0.6c-5.8,0-11.5,0-18,0c2.7-4.3,4.9-8.1,7.4-11.6c1.6-2.3,1.6-4.3,0.2-6.7
			c-3.1-5.7-5.9-11.6-9-17.3c-1.2-2.2-1.4-3.2,1.7-3.1c3.7,0.2,7.4,0.2,11.1,0c1.9-0.1,2.9,0.6,3.8,2.3c1.9,4.1,4.2,8,6,12.1
			c1.1,2.5,2.3,2.6,4.5,1.3c8.1-4.6,16.3-8.9,24.3-13.5c2.8-1.6,5.6-2.5,8.9-2.3c3.9,0.2,7.9,0.1,11.8,0.1
			C452.9,166.7,453,167,453.1,167.2z"/>
		<path class="st1" d="M339.1,166.5c10.2,0,20.4,0,30.6,0c2.2,0,5.7,3.8,5.5,6c-0.2,1.7-1.6,1-2.5,1c-7.3,0.1-14.6,0.2-21.9,0
			c-2.8-0.1-4.4,1-5.9,3.3c-5.5,8.7-11.2,17.3-16.7,26.1c-1.1,1.8-2.3,2.5-4.5,2.4c-4.4-0.2-8.8-0.1-13.2,0
			c-2.7,0.1-2.6-0.8-1.4-2.7c5.6-8.6,11.2-17.4,16.8-26c1.6-2.4,1.2-3.1-1.6-3c-6.7,0.1-13.5,0-20.2,0.1c-2.1,0-2.8-0.3-1.5-2.5
			c1.8-3.1,3.8-4.8,7.9-4.6C320,166.8,329.5,166.5,339.1,166.5z"/>
	</g>
</g>
<g>
</g>
<g>
</g>
<g>
</g>
<g>
</g>
<g>
</g>
</svg>
