<?xml version="1.0" encoding="utf-8"?>
<!-- Generator: Adobe Illustrator 22.1.0, SVG Export Plug-In . SVG Version: 6.00 Build 0)  -->
<svg version="1.1" id="Layer_1" xmlns="http://www.w3.org/2000/svg" xmlns:xlink="http://www.w3.org/1999/xlink" x="0px" y="0px"
	 width="1368px" height="792px" viewBox="0 0 1368 792" style="enable-background:new 0 0 1368 792;" xml:space="preserve">
<style type="text/css">
	.st0{fill:none;stroke:#FF0000;stroke-miterlimit:10;}
</style>
<g>
	<polygon class="st0" points="936,405 936,792 0,792 0,396 54,396 54,405 72,405 72,396 90,396 90,405 108,405 162,405 180,405 
		180,396 198,396 198,405 216,405 216,396 234,396 234,405 252,405 252,396 270,396 270,405 288,405 288,396 306,396 306,405 
		324,405 324,396 342,396 342,405 360,405 360,396 378,396 378,405 396,405 396,396 414,396 414,405 432,405 432,396 450,396 
		450,405 468,405 468,396 486,396 486,405 504,405 504,396 522,396 522,405 540,405 540,396 558,396 558,405 576,405 576,396 
		594,396 594,405 612,405 612,396 630,396 630,405 648,405 648,396 666,396 666,405 684,405 684,396 702,396 702,405 720,405 
		720,396 738,396 738,405 756,405 756,396 774,396 774,405 792,405 810,405 828,405 828,396 846,396 846,405 864,405 864,396 
		882,396 882,405 	"/>
	<g>
		<rect x="479.8" y="427" class="st0" width="181.3" height="99"/>
		<rect x="270.9" y="427" class="st0" width="181.3" height="99"/>
		<rect x="26" y="427" class="st0" width="217.3" height="99"/>
		<rect x="688.7" y="427" class="st0" width="217.3" height="99"/>
	</g>
	<g>
		<rect x="479.8" y="671" class="st0" width="181.3" height="99"/>
		<rect x="270.9" y="671" class="st0" width="181.3" height="99"/>
		<rect x="26" y="671" class="st0" width="217.3" height="99"/>
		<rect x="688.7" y="671" class="st0" width="217.3" height="99"/>
	</g>
	<g>
		<rect x="479.8" y="549" class="st0" width="181.3" height="99"/>
		<rect x="270.9" y="549" class="st0" width="181.3" height="99"/>
		<rect x="26" y="549" class="st0" width="217.3" height="99"/>
		<rect x="688.7" y="549" class="st0" width="217.3" height="99"/>
	</g>
</g>
<g>
	<polygon class="st0" points="0,396 0,9 936,9 936,405 882,405 882,396 864,396 864,405 846,405 846,396 828,396 774,396 756,396 
		756,405 738,405 738,396 720,396 720,405 702,405 702,396 684,396 684,405 666,405 666,396 648,396 648,405 630,405 630,396 
		612,396 612,405 594,405 594,396 576,396 576,405 558,405 558,396 540,396 540,405 522,405 522,396 504,396 504,405 486,405 
		486,396 468,396 468,405 450,405 450,396 432,396 432,405 414,405 414,396 396,396 396,405 378,405 378,396 360,396 360,405 
		342,405 342,396 324,396 324,405 306,405 306,396 288,396 288,405 270,405 270,396 252,396 252,405 234,405 234,396 216,396 
		216,405 198,405 198,396 180,396 180,405 162,405 162,396 144,396 126,396 108,396 108,405 90,405 90,396 72,396 72,405 54,405 
		54,396 	"/>
	<g>
		<rect x="274.9" y="275" class="st0" width="181.3" height="99"/>
		<rect x="483.8" y="275" class="st0" width="181.3" height="99"/>
		<rect x="692.7" y="275" class="st0" width="217.3" height="99"/>
		<rect x="30" y="275" class="st0" width="217.3" height="99"/>
	</g>
	<g>
		<rect x="274.9" y="31" class="st0" width="181.3" height="99"/>
		<rect x="483.8" y="31" class="st0" width="181.3" height="99"/>
		<rect x="692.7" y="31" class="st0" width="217.3" height="99"/>
		<rect x="30" y="31" class="st0" width="217.3" height="99"/>
	</g>
	<g>
		<rect x="274.9" y="153" class="st0" width="181.3" height="99"/>
		<rect x="483.8" y="153" class="st0" width="181.3" height="99"/>
		<rect x="692.7" y="153" class="st0" width="217.3" height="99"/>
		<rect x="30" y="153" class="st0" width="217.3" height="99"/>
	</g>
</g>
</svg>
