<?xml version="1.0" encoding="utf-8"?>
<!-- Generator: Adobe Illustrator 22.1.0, SVG Export Plug-In . SVG Version: 6.00 Build 0)  -->
<svg version="1.1" id="Layer_1" xmlns="http://www.w3.org/2000/svg" xmlns:xlink="http://www.w3.org/1999/xlink" x="0px" y="0px"
	 width="1368px" height="792px" viewBox="0 0 1368 792" style="enable-background:new 0 0 1368 792;" xml:space="preserve">
<style type="text/css">
	.st0{fill:none;stroke:#FF0000;stroke-miterlimit:10;}
	.st1{fill:none;stroke:#0000FF;stroke-miterlimit:10;}
</style>
<g>
	<rect x="425.6" y="128.9" class="st0" width="252" height="288"/>
	<g>
		<path class="st1" d="M30.2,110.9v324h846v-324H30.2z M124.3,416.9H39.2v-81.5h85.1V416.9z M124.3,317.4H39.2V200.6h85.1V317.4z
			 M124.3,191.6H39.2v-62.7h85.1V191.6z M305.6,416.9H133.3v-81.5h172.3V416.9z M305.6,317.4H133.3V128.9h172.3V317.4z M407.6,416.9
			h-93v-81.5h93V416.9z M407.6,317.4h-93V200.6h93V317.4z M407.6,191.6h-93v-62.7h93V191.6z M677.6,416.9h-252v-288h252V416.9z
			 M867.2,416.9H695.6v-81.5h171.6V416.9z M867.2,317.4H695.6V128.9h171.6V317.4z"/>
		<g>
			<rect x="172.4" y="179.2" class="st0" width="90" height="90"/>
		</g>
	</g>
	<polygon class="st0" points="867.2,146.9 867.2,164.9 876.2,164.9 876.2,182.9 867.2,182.9 867.2,200.9 876.2,200.9 876.2,218.9 
		867.2,218.9 867.2,236.9 876.2,236.9 876.2,254.9 867.2,254.9 867.2,272.9 876.2,272.9 876.2,290.9 867.2,290.9 867.2,308.9 
		876.2,308.9 876.2,326.9 867.2,326.9 867.2,344.9 876.2,344.9 876.2,362.9 867.2,362.9 867.2,380.9 876.2,380.9 876.2,398.9 
		867.2,398.9 867.2,416.9 876.2,416.9 876.2,434.9 30.2,434.9 30.2,416.9 39.2,416.9 39.2,398.9 30.2,398.9 30.2,380.9 39.2,380.9 
		39.2,362.9 30.2,362.9 30.2,344.9 39.2,344.9 39.2,326.9 30.2,326.9 30.2,308.9 39.2,308.9 39.2,290.9 30.2,290.9 30.2,272.9 
		39.2,272.9 39.2,254.9 30.2,254.9 30.2,236.9 39.2,236.9 39.2,218.9 30.2,218.9 30.2,200.9 39.2,200.9 39.2,182.9 30.2,182.9 
		30.2,164.9 39.2,164.9 39.2,146.9 30.2,146.9 30.2,128.9 39.2,128.9 39.2,110.9 867.2,110.9 867.2,128.9 876.2,128.9 876.2,146.9 	
		"/>
</g>
<g>
	<rect x="425.6" y="463.3" class="st0" width="252" height="288"/>
	<g>
		<path class="st1" d="M30.2,445.3v324h846v-324H30.2z M124.3,751.3H39.2v-81.4h85.1V751.3z M124.3,651.9H39.2V535.1h85.1V651.9z
			 M124.3,526.1H39.2v-62.8h85.1V526.1z M305.6,751.3H133.3v-81.4h172.3V751.3z M305.6,651.9H133.3V463.4h172.3V651.9z M407.6,751.3
			h-93v-81.4h93V751.3z M407.6,651.9h-93V535.1h93V651.9z M407.6,526.1h-93v-62.8h93V526.1z M677.6,751.3h-252v-288h252V751.3z
			 M867.2,751.3H695.6v-81.4h171.6V751.3z M867.2,651.9H695.6V463.4h171.6V651.9z"/>
		<g>
			<rect x="172.4" y="513.6" class="st0" width="90" height="90"/>
		</g>
	</g>
	<polygon class="st0" points="867.2,481.3 867.2,499.3 876.2,499.3 876.2,517.3 867.2,517.3 867.2,535.3 876.2,535.3 876.2,553.3 
		867.2,553.3 867.2,571.3 876.2,571.3 876.2,589.3 867.2,589.3 867.2,607.3 876.2,607.3 876.2,625.3 867.2,625.3 867.2,643.3 
		876.2,643.3 876.2,661.3 867.2,661.3 867.2,679.3 876.2,679.3 876.2,697.3 867.2,697.3 867.2,715.3 876.2,715.3 876.2,733.3 
		867.2,733.3 867.2,751.3 876.2,751.3 876.2,769.3 30.2,769.3 30.2,751.3 39.2,751.3 39.2,733.3 30.2,733.3 30.2,715.3 39.2,715.3 
		39.2,697.3 30.2,697.3 30.2,679.3 39.2,679.3 39.2,661.3 30.2,661.3 30.2,643.3 39.2,643.3 39.2,625.3 30.2,625.3 30.2,607.3 
		39.2,607.3 39.2,589.3 30.2,589.3 30.2,571.3 39.2,571.3 39.2,553.3 30.2,553.3 30.2,535.3 39.2,535.3 39.2,517.3 30.2,517.3 
		30.2,499.3 39.2,499.3 39.2,481.3 30.2,481.3 30.2,463.3 39.2,463.3 39.2,445.3 867.2,445.3 867.2,463.3 876.2,463.3 876.2,481.3 	
		"/>
</g>
</svg>
