<?xml version="1.0" encoding="utf-8"?>
<!-- Generator: Adobe Illustrator 22.1.0, SVG Export Plug-In . SVG Version: 6.00 Build 0)  -->
<svg version="1.1" id="Layer_1" xmlns="http://www.w3.org/2000/svg" xmlns:xlink="http://www.w3.org/1999/xlink" x="0px" y="0px"
	 width="1368px" height="792px" viewBox="0 0 1368 792" style="enable-background:new 0 0 1368 792;" xml:space="preserve">
<style type="text/css">
	.st0{fill:none;stroke:#FF0000;stroke-miterlimit:10;}
	.st1{fill:none;stroke:#0000FF;stroke-miterlimit:10;}
	.st2{fill:none;stroke:#00FF00;stroke-miterlimit:10;}
</style>
<g>
	<polygon class="st0" points="936,405 936,792 0,792 0,396 54,396 54,405 72,405 72,396 90,396 90,405 108,405 162,405 180,405 
		180,396 198,396 198,405 216,405 216,396 234,396 234,405 252,405 252,396 270,396 270,405 288,405 288,396 306,396 306,405 
		324,405 324,396 342,396 342,405 360,405 360,396 378,396 378,405 396,405 396,396 414,396 414,405 432,405 432,396 450,396 
		450,405 468,405 468,396 486,396 486,405 504,405 504,396 522,396 522,405 540,405 540,396 558,396 558,405 576,405 576,396 
		594,396 594,405 612,405 612,396 630,396 630,405 648,405 648,396 666,396 666,405 684,405 684,396 702,396 702,405 720,405 
		720,396 738,396 738,405 756,405 756,396 774,396 774,405 792,405 810,405 828,405 828,396 846,396 846,405 864,405 864,396 
		882,396 882,405 	"/>
</g>
<g>
	<polygon class="st0" points="0,396 0,9 936,9 936,405 882,405 882,396 864,396 864,405 846,405 846,396 828,396 774,396 756,396 
		756,405 738,405 738,396 720,396 720,405 702,405 702,396 684,396 684,405 666,405 666,396 648,396 648,405 630,405 630,396 
		612,396 612,405 594,405 594,396 576,396 576,405 558,405 558,396 540,396 540,405 522,405 522,396 504,396 504,405 486,405 
		486,396 468,396 468,405 450,405 450,396 432,396 432,405 414,405 414,396 396,396 396,405 378,405 378,396 360,396 360,405 
		342,405 342,396 324,396 324,405 306,405 306,396 288,396 288,405 270,405 270,396 252,396 252,405 234,405 234,396 216,396 
		216,405 198,405 198,396 180,396 180,405 162,405 162,396 144,396 126,396 108,396 108,405 90,405 90,396 72,396 72,405 54,405 
		54,396 	"/>
</g>
<g>
	<circle class="st0" cx="887" cy="420" r="6.8"/>
	<circle class="st0" cx="920.4" cy="420" r="6.8"/>
	<circle class="st0" cx="853.7" cy="420" r="6.8"/>
	<circle class="st0" cx="820.3" cy="420" r="6.8"/>
	<circle class="st0" cx="787" cy="420" r="6.8"/>
	<circle class="st0" cx="753.6" cy="420" r="6.8"/>
	<circle class="st0" cx="720.2" cy="420" r="6.8"/>
	<circle class="st0" cx="686.9" cy="420" r="6.8"/>
	<circle class="st0" cx="653.5" cy="420" r="6.8"/>
	<circle class="st0" cx="620.1" cy="420" r="6.8"/>
	<circle class="st0" cx="586.8" cy="420" r="6.8"/>
	<circle class="st0" cx="520" cy="420" r="6.8"/>
	<circle class="st0" cx="453.3" cy="420" r="6.8"/>
	<circle class="st0" cx="386.6" cy="420" r="6.8"/>
	<circle class="st0" cx="319.8" cy="420" r="6.8"/>
	<circle class="st0" cx="253.1" cy="420" r="6.8"/>
	<circle class="st0" cx="219.7" cy="420" r="6.8"/>
	<circle class="st0" cx="186.4" cy="420" r="6.8"/>
	<circle class="st0" cx="153" cy="420" r="6.8"/>
	<circle class="st0" cx="119.6" cy="420" r="6.8"/>
	<circle class="st0" cx="86.3" cy="420" r="6.8"/>
	<circle class="st0" cx="52.9" cy="420" r="6.8"/>
	<circle class="st0" cx="19.5" cy="420" r="6.8"/>
	<circle class="st0" cx="553.4" cy="420" r="6.8"/>
	<circle class="st0" cx="486.7" cy="420" r="6.8"/>
	<circle class="st0" cx="419.9" cy="420" r="6.8"/>
	<circle class="st0" cx="353.2" cy="420" r="6.8"/>
	<circle class="st0" cx="286.5" cy="420" r="6.8"/>
</g>
<g>
	<circle class="st0" cx="887" cy="379" r="6.8"/>
	<circle class="st0" cx="920.4" cy="379" r="6.8"/>
	<circle class="st0" cx="853.7" cy="379" r="6.8"/>
	<circle class="st0" cx="820.3" cy="379" r="6.8"/>
	<circle class="st0" cx="787" cy="379" r="6.8"/>
	<circle class="st0" cx="753.6" cy="379" r="6.8"/>
	<circle class="st0" cx="720.2" cy="379" r="6.8"/>
	<circle class="st0" cx="686.9" cy="379" r="6.8"/>
	<circle class="st0" cx="653.5" cy="379" r="6.8"/>
	<circle class="st0" cx="620.1" cy="379" r="6.8"/>
	<circle class="st0" cx="586.8" cy="379" r="6.8"/>
	<circle class="st0" cx="520" cy="379" r="6.8"/>
	<circle class="st0" cx="453.3" cy="379" r="6.8"/>
	<circle class="st0" cx="386.6" cy="379" r="6.8"/>
	<circle class="st0" cx="319.8" cy="379" r="6.8"/>
	<circle class="st0" cx="253.1" cy="379" r="6.8"/>
	<circle class="st0" cx="219.7" cy="379" r="6.8"/>
	<circle class="st0" cx="186.4" cy="379" r="6.8"/>
	<circle class="st0" cx="153" cy="379" r="6.8"/>
	<circle class="st0" cx="119.6" cy="379" r="6.8"/>
	<circle class="st0" cx="86.3" cy="379" r="6.8"/>
	<circle class="st0" cx="52.9" cy="379" r="6.8"/>
	<circle class="st0" cx="19.5" cy="379" r="6.8"/>
	<circle class="st0" cx="553.4" cy="379" r="6.8"/>
	<circle class="st0" cx="486.7" cy="379" r="6.8"/>
	<circle class="st0" cx="419.9" cy="379" r="6.8"/>
	<circle class="st0" cx="353.2" cy="379" r="6.8"/>
	<circle class="st0" cx="286.5" cy="379" r="6.8"/>
</g>
<g>
	<path class="st1" d="M0,438.3h3.2c6.5-8.9,18.1-9.5,24.5,0h20.5c6.5-8.9,18.1-9.5,24.5,0h20.9c6.5-8.9,18.1-9.5,24.5,0h21.2
		c6.5-8.9,18.1-9.5,24.5,0h20.5c6.5-8.9,18.1-9.5,24.5,0h20.9c6.5-8.9,18.1-9.5,24.5,0h21c6.5-8.9,18.1-9.5,24.5,0h20.5
		c6.5-8.9,18.1-9.5,24.5,0h20.9c6.5-8.9,18.1-9.5,24.5,0h20.3c6.5-8.9,18.1-9.5,24.5,0h20.5c6.5-8.9,18.1-9.5,24.5,0h20.9
		c6.5-8.9,18.1-9.5,24.5,0h21c6.5-8.9,18.1-9.5,24.5,0h20.5c6.5-8.9,18.1-9.5,24.5,0h20.9c6.5-8.9,18.1-9.5,24.5,0h21.2
		c6.5-8.9,18.1-9.5,24.5,0h20.5c6.5-8.9,18.1-9.5,24.5,0h20.9c6.5-8.9,18.1-9.5,24.5,0h21c6.5-8.9,18.1-9.5,24.5,0h20.5
		c6.5-8.9,18.1-9.5,24.5,0h20.9c6.5-8.9,18.1-9.5,24.5,0h2.6 M935.7,457.9H933c-6.4-9.5-18-8.9-24.5,0h-20.9c-6.4-9.5-18-8.9-24.5,0
		h-20.5c-6.4-9.5-18-8.9-24.5,0h-21c-6.4-9.5-18-8.9-24.5,0h-20.9c-6.4-9.5-18-8.9-24.5,0h-20.5c-6.4-9.5-18-8.9-24.5,0h-21.2
		c-6.4-9.5-18-8.9-24.5,0h-20.9c-6.4-9.5-18-8.9-24.5,0h-20.5c-6.4-9.5-18-8.9-24.5,0h-21c-6.4-9.5-18-8.9-24.5,0h-20.9
		c-6.4-9.5-18-8.9-24.5,0h-20.5c-6.4-9.5-18-8.9-24.5,0H390c-6.4-9.5-18-8.9-24.5,0h-20.9c-6.4-9.5-18-8.9-24.5,0h-20.5
		c-6.4-9.5-18-8.9-24.5,0h-21c-6.4-9.5-18-8.9-24.5,0h-20.9c-6.4-9.5-18-8.9-24.5,0h-20.5c-6.4-9.5-18-8.9-24.5,0h-21.2
		c-6.4-9.5-18-8.9-24.5,0H72.7c-6.4-9.5-18-8.9-24.5,0H27.7c-6.4-9.5-18-8.9-24.5,0H0 M935.7,477.5H933c-6.4-9.5-18-8.9-24.5,0
		h-20.9c-6.4-9.5-18-8.9-24.5,0h-20.5c-6.4-9.5-18-8.9-24.5,0h-21c-6.4-9.5-18-8.9-24.5,0h-20.9c-6.4-9.5-18-8.9-24.5,0h-20.5
		c-6.4-9.5-18-8.9-24.5,0h-21.2c-6.4-9.5-18-8.9-24.5,0h-20.9c-6.4-9.5-18-8.9-24.5,0h-20.5c-6.4-9.5-18-8.9-24.5,0h-21
		c-6.4-9.5-18-8.9-24.5,0h-20.9c-6.4-9.5-18-8.9-24.5,0h-20.5c-6.4-9.5-18-8.9-24.5,0H390c-6.4-9.5-18-8.9-24.5,0h-20.9
		c-6.4-9.5-18-8.9-24.5,0h-20.5c-6.4-9.5-18-8.9-24.5,0h-21c-6.4-9.5-18-8.9-24.5,0h-20.9c-6.4-9.5-18-8.9-24.5,0h-20.5
		c-6.4-9.5-18-8.9-24.5,0h-21.2c-6.4-9.5-18-8.9-24.5,0H72.7c-6.4-9.5-18-8.9-24.5,0H27.7c-6.4-9.5-18-8.9-24.5,0H0 M935.7,497.1
		H933c-6.4-9.5-18-8.9-24.5,0h-20.9c-6.4-9.5-18-8.9-24.5,0h-20.5c-6.4-9.5-18-8.9-24.5,0h-21c-6.4-9.5-18-8.9-24.5,0h-20.9
		c-6.4-9.5-18-8.9-24.5,0h-20.5c-6.4-9.5-18-8.9-24.5,0h-21.2c-6.4-9.5-18-8.9-24.5,0h-20.9c-6.4-9.5-18-8.9-24.5,0h-20.5
		c-6.4-9.5-18-8.9-24.5,0h-21c-6.4-9.5-18-8.9-24.5,0h-20.9c-6.4-9.5-18-8.9-24.5,0h-20.5c-6.4-9.5-18-8.9-24.5,0H390
		c-6.4-9.5-18-8.9-24.5,0h-20.9c-6.4-9.5-18-8.9-24.5,0h-20.5c-6.4-9.5-18-8.9-24.5,0h-21c-6.4-9.5-18-8.9-24.5,0h-20.9
		c-6.4-9.5-18-8.9-24.5,0h-20.5c-6.4-9.5-18-8.9-24.5,0h-21.2c-6.4-9.5-18-8.9-24.5,0H72.7c-6.4-9.5-18-8.9-24.5,0H27.7
		c-6.4-9.5-18-8.9-24.5,0H0 M935.7,516.8H933c-6.4-9.5-18-8.9-24.5,0h-20.9c-6.4-9.5-18-8.9-24.5,0h-20.5c-6.4-9.5-18-8.9-24.5,0
		h-21c-6.4-9.5-18-8.9-24.5,0h-20.9c-6.4-9.5-18-8.9-24.5,0h-20.5c-6.4-9.5-18-8.9-24.5,0h-21.2c-6.4-9.5-18-8.9-24.5,0h-20.9
		c-6.4-9.5-18-8.9-24.5,0h-20.5c-6.4-9.5-18-8.9-24.5,0h-21c-6.4-9.5-18-8.9-24.5,0h-20.9c-6.4-9.5-18-8.9-24.5,0h-20.5
		c-6.4-9.5-18-8.9-24.5,0H390c-6.4-9.5-18-8.9-24.5,0h-20.9c-6.4-9.5-18-8.9-24.5,0h-20.5c-6.4-9.5-18-8.9-24.5,0h-21
		c-6.4-9.5-18-8.9-24.5,0h-20.9c-6.4-9.5-18-8.9-24.5,0h-20.5c-6.4-9.5-18-8.9-24.5,0h-21.2c-6.4-9.5-18-8.9-24.5,0H72.7
		c-6.4-9.5-18-8.9-24.5,0H27.7c-6.4-9.5-18-8.9-24.5,0H0 M935.7,556H933c-6.4-9.5-18-8.9-24.5,0h-20.9c-6.4-9.5-18-8.9-24.5,0h-20.5
		c-6.4-9.5-18-8.9-24.5,0h-21c-6.4-9.5-18-8.9-24.5,0h-20.9c-6.4-9.5-18-8.9-24.5,0h-20.5c-6.4-9.5-18-8.9-24.5,0h-21.2
		c-6.4-9.5-18-8.9-24.5,0h-20.9c-6.4-9.5-18-8.9-24.5,0h-20.5c-6.4-9.5-18-8.9-24.5,0h-21c-6.4-9.5-18-8.9-24.5,0h-20.9
		c-6.4-9.5-18-8.9-24.5,0h-20.5c-6.4-9.5-18-8.9-24.5,0H390c-6.4-9.5-18-8.9-24.5,0h-20.9c-6.4-9.5-18-8.9-24.5,0h-20.5
		c-6.4-9.5-18-8.9-24.5,0h-21c-6.4-9.5-18-8.9-24.5,0h-20.9c-6.4-9.5-18-8.9-24.5,0h-20.5c-6.4-9.5-18-8.9-24.5,0h-21.2
		c-6.4-9.5-18-8.9-24.5,0H72.7c-6.4-9.5-18-8.9-24.5,0H27.7c-6.4-9.5-18-8.9-24.5,0H0 M935.7,595.3H933c-6.4-9.5-18-8.9-24.5,0
		h-20.9c-6.4-9.5-18-8.9-24.5,0h-20.5c-6.4-9.5-18-8.9-24.5,0h-21c-6.4-9.5-18-8.9-24.5,0h-20.9c-6.4-9.5-18-8.9-24.5,0h-20.5
		c-6.4-9.5-18-8.9-24.5,0h-21.2c-6.4-9.5-18-8.9-24.5,0h-20.9c-6.4-9.5-18-8.9-24.5,0h-20.5c-6.4-9.5-18-8.9-24.5,0h-21
		c-6.4-9.5-18-8.9-24.5,0h-20.9c-6.4-9.5-18-8.9-24.5,0h-20.5c-6.4-9.5-18-8.9-24.5,0H390c-6.4-9.5-18-8.9-24.5,0h-20.9
		c-6.4-9.5-18-8.9-24.5,0h-20.5c-6.4-9.5-18-8.9-24.5,0h-21c-6.4-9.5-18-8.9-24.5,0h-20.9c-6.4-9.5-18-8.9-24.5,0h-20.5
		c-6.4-9.5-18-8.9-24.5,0h-21.2c-6.4-9.5-18-8.9-24.5,0H72.7c-6.4-9.5-18-8.9-24.5,0H27.7c-6.4-9.5-18-8.9-24.5,0H0 M935.7,634.5
		H933c-6.4-9.5-18-8.9-24.5,0h-20.9c-6.4-9.5-18-8.9-24.5,0h-20.5c-6.4-9.5-18-8.9-24.5,0h-21c-6.4-9.5-18-8.9-24.5,0h-20.9
		c-6.4-9.5-18-8.9-24.5,0h-20.5c-6.4-9.5-18-8.9-24.5,0h-21.2c-6.4-9.5-18-8.9-24.5,0h-20.9c-6.4-9.5-18-8.9-24.5,0h-20.5
		c-6.4-9.5-18-8.9-24.5,0h-21c-6.4-9.5-18-8.9-24.5,0h-20.9c-6.4-9.5-18-8.9-24.5,0h-20.5c-6.4-9.5-18-8.9-24.5,0H390
		c-6.4-9.5-18-8.9-24.5,0h-20.9c-6.4-9.5-18-8.9-24.5,0h-20.5c-6.4-9.5-18-8.9-24.5,0h-21c-6.4-9.5-18-8.9-24.5,0h-20.9
		c-6.4-9.5-18-8.9-24.5,0h-20.5c-6.4-9.5-18-8.9-24.5,0h-21.2c-6.4-9.5-18-8.9-24.5,0H72.7c-6.4-9.5-18-8.9-24.5,0H27.7
		c-6.4-9.5-18-8.9-24.5,0H0 M935.7,673.8H933c-6.4-9.5-18-8.9-24.5,0h-20.9c-6.4-9.5-18-8.9-24.5,0h-20.5c-6.4-9.5-18-8.9-24.5,0
		h-21c-6.4-9.5-18-8.9-24.5,0h-20.9c-6.4-9.5-18-8.9-24.5,0h-20.5c-6.4-9.5-18-8.9-24.5,0h-21.2c-6.4-9.5-18-8.9-24.5,0h-20.9
		c-6.4-9.5-18-8.9-24.5,0h-20.5c-6.4-9.5-18-8.9-24.5,0h-21c-6.4-9.5-18-8.9-24.5,0h-20.9c-6.4-9.5-18-8.9-24.5,0h-20.5
		c-6.4-9.5-18-8.9-24.5,0H390c-6.4-9.5-18-8.9-24.5,0h-20.9c-6.4-9.5-18-8.9-24.5,0h-20.5c-6.4-9.5-18-8.9-24.5,0h-21
		c-6.4-9.5-18-8.9-24.5,0h-20.9c-6.4-9.5-18-8.9-24.5,0h-20.5c-6.4-9.5-18-8.9-24.5,0h-21.2c-6.4-9.5-18-8.9-24.5,0H72.7
		c-6.4-9.5-18-8.9-24.5,0H27.7c-6.4-9.5-18-8.9-24.5,0H0 M935.7,693.4H933c-6.4-9.5-18-8.9-24.5,0h-20.9c-6.4-9.5-18-8.9-24.5,0
		h-20.5c-6.4-9.5-18-8.9-24.5,0h-21c-6.4-9.5-18-8.9-24.5,0h-20.9c-6.4-9.5-18-8.9-24.5,0h-20.5c-6.4-9.5-18-8.9-24.5,0h-21.2
		c-6.4-9.5-18-8.9-24.5,0h-20.9c-6.4-9.5-18-8.9-24.5,0h-20.5c-6.4-9.5-18-8.9-24.5,0h-21c-6.4-9.5-18-8.9-24.5,0h-20.9
		c-6.4-9.5-18-8.9-24.5,0h-20.5c-6.4-9.5-18-8.9-24.5,0H390c-6.4-9.5-18-8.9-24.5,0h-20.9c-6.4-9.5-18-8.9-24.5,0h-20.5
		c-6.4-9.5-18-8.9-24.5,0h-21c-6.4-9.5-18-8.9-24.5,0h-20.9c-6.4-9.5-18-8.9-24.5,0h-20.5c-6.4-9.5-18-8.9-24.5,0h-21.2
		c-6.4-9.5-18-8.9-24.5,0H72.7c-6.4-9.5-18-8.9-24.5,0H27.7c-6.4-9.5-18-8.9-24.5,0H0 M935.7,713.1H933c-6.4-9.5-18-8.9-24.5,0
		h-20.9c-6.4-9.5-18-8.9-24.5,0h-20.5c-6.4-9.5-18-8.9-24.5,0h-21c-6.4-9.5-18-8.9-24.5,0h-20.9c-6.4-9.5-18-8.9-24.5,0h-20.5
		c-6.4-9.5-18-8.9-24.5,0h-21.2c-6.4-9.5-18-8.9-24.5,0h-20.9c-6.4-9.5-18-8.9-24.5,0h-20.5c-6.4-9.5-18-8.9-24.5,0h-21
		c-6.4-9.5-18-8.9-24.5,0h-20.9c-6.4-9.5-18-8.9-24.5,0h-20.5c-6.4-9.5-18-8.9-24.5,0H390c-6.4-9.5-18-8.9-24.5,0h-20.9
		c-6.4-9.5-18-8.9-24.5,0h-20.5c-6.4-9.5-18-8.9-24.5,0h-21c-6.4-9.5-18-8.9-24.5,0h-20.9c-6.4-9.5-18-8.9-24.5,0h-20.5
		c-6.4-9.5-18-8.9-24.5,0h-21.2c-6.4-9.5-18-8.9-24.5,0H72.7c-6.4-9.5-18-8.9-24.5,0H27.7c-6.4-9.5-18-8.9-24.5,0H0 M935.7,732.7
		H933c-6.4-9.5-18-8.9-24.5,0h-20.9c-6.4-9.5-18-8.9-24.5,0h-20.5c-6.4-9.5-18-8.9-24.5,0h-21c-6.4-9.5-18-8.9-24.5,0h-20.9
		c-6.4-9.5-18-8.9-24.5,0h-20.5c-6.4-9.5-18-8.9-24.5,0h-21.2c-6.4-9.5-18-8.9-24.5,0h-20.9c-6.4-9.5-18-8.9-24.5,0h-20.5
		c-6.4-9.5-18-8.9-24.5,0h-21c-6.4-9.5-18-8.9-24.5,0h-20.9c-6.4-9.5-18-8.9-24.5,0h-20.5c-6.4-9.5-18-8.9-24.5,0H390
		c-6.4-9.5-18-8.9-24.5,0h-20.9c-6.4-9.5-18-8.9-24.5,0h-20.5c-6.4-9.5-18-8.9-24.5,0h-21c-6.4-9.5-18-8.9-24.5,0h-20.9
		c-6.4-9.5-18-8.9-24.5,0h-20.5c-6.4-9.5-18-8.9-24.5,0h-21.2c-6.4-9.5-18-8.9-24.5,0H72.7c-6.4-9.5-18-8.9-24.5,0H27.7
		c-6.4-9.5-18-8.9-24.5,0H0 M935.7,752.3H933c-6.4-9.5-18-8.9-24.5,0h-20.9c-6.4-9.5-18-8.9-24.5,0h-20.5c-6.4-9.5-18-8.9-24.5,0
		h-21c-6.4-9.5-18-8.9-24.5,0h-20.9c-6.4-9.5-18-8.9-24.5,0h-20.5c-6.4-9.5-18-8.9-24.5,0h-21.2c-6.4-9.5-18-8.9-24.5,0h-20.9
		c-6.4-9.5-18-8.9-24.5,0h-20.5c-6.4-9.5-18-8.9-24.5,0h-21c-6.4-9.5-18-8.9-24.5,0h-20.9c-6.4-9.5-18-8.9-24.5,0h-20.5
		c-6.4-9.5-18-8.9-24.5,0H390c-6.4-9.5-18-8.9-24.5,0h-20.9c-6.4-9.5-18-8.9-24.5,0h-20.5c-6.4-9.5-18-8.9-24.5,0h-21
		c-6.4-9.5-18-8.9-24.5,0h-20.9c-6.4-9.5-18-8.9-24.5,0h-20.5c-6.4-9.5-18-8.9-24.5,0h-21.2c-6.4-9.5-18-8.9-24.5,0H72.7
		c-6.4-9.5-18-8.9-24.5,0H27.7c-6.4-9.5-18-8.9-24.5,0H0 M935.7,771.9H933c-6.4-9.5-18-8.9-24.5,0h-20.9c-6.4-9.5-18-8.9-24.5,0
		h-20.5c-6.4-9.5-18-8.9-24.5,0h-21c-6.4-9.5-18-8.9-24.5,0h-20.9c-6.4-9.5-18-8.9-24.5,0h-20.5c-6.4-9.5-18-8.9-24.5,0h-21.2
		c-6.4-9.5-18-8.9-24.5,0h-20.9c-6.4-9.5-18-8.9-24.5,0h-20.5c-6.4-9.5-18-8.9-24.5,0h-21c-6.4-9.5-18-8.9-24.5,0h-20.9
		c-6.4-9.5-18-8.9-24.5,0h-20.5c-6.4-9.5-18-8.9-24.5,0H390c-6.4-9.5-18-8.9-24.5,0h-20.9c-6.4-9.5-18-8.9-24.5,0h-20.5
		c-6.4-9.5-18-8.9-24.5,0h-21c-6.4-9.5-18-8.9-24.5,0h-20.9c-6.4-9.5-18-8.9-24.5,0h-20.5c-6.4-9.5-18-8.9-24.5,0h-21.2
		c-6.4-9.5-18-8.9-24.5,0H72.7c-6.4-9.5-18-8.9-24.5,0H27.7c-6.4-9.5-18-8.9-24.5,0H0 M936.5,791.6h-2.6c-6.4-9.5-18-8.9-24.5,0
		h-20.9c-6.4-9.5-18-8.9-24.5,0h-20.5c-6.4-9.5-18-8.9-24.5,0h-21c-6.4-9.5-18-8.9-24.5,0h-20.9c-6.4-9.5-18-8.9-24.5,0h-20.5
		c-6.4-9.5-18-8.9-24.5,0h-21.2c-6.4-9.5-18-8.9-24.5,0h-20.9c-6.4-9.5-18-8.9-24.5,0h-20.5c-6.4-9.5-18-8.9-24.5,0h-21
		c-6.4-9.5-18-8.9-24.5,0h-20.9c-6.4-9.5-18-8.9-24.5,0h-20.5c-6.4-9.5-18-8.9-24.5,0h-20.3c-6.4-9.5-18-8.9-24.5,0h-20.9
		c-6.4-9.5-18-8.9-24.5,0h-20.5c-6.4-9.5-18-8.9-24.5,0h-21c-6.4-9.5-18-8.9-24.5,0h-20.9c-6.4-9.5-18-8.9-24.5,0h-20.5
		c-6.4-9.5-18-8.9-24.5,0h-21.2c-6.4-9.5-18-8.9-24.5,0H73.5c-6.4-9.5-18-8.9-24.5,0H28.5c-6.4-9.5-18-8.9-24.5,0H0.8 M935.7,418.6
		H933c-6.4-9.5-18-8.9-24.5,0h-20.9c-6.4-9.5-18-8.9-24.5,0h-20.5c-6.4-9.5-18-8.9-24.5,0h-21c-6.4-9.5-18-8.9-24.5,0h-20.9
		c-6.4-9.5-18-8.9-24.5,0h-20.5c-6.4-9.5-18-8.9-24.5,0h-21.2c-6.4-9.5-18-8.9-24.5,0h-20.9c-6.4-9.5-18-8.9-24.5,0h-20.5
		c-6.4-9.5-18-8.9-24.5,0h-21c-6.4-9.5-18-8.9-24.5,0h-20.9c-6.4-9.5-18-8.9-24.5,0h-20.5c-6.4-9.5-18-8.9-24.5,0H390
		c-6.4-9.5-18-8.9-24.5,0h-20.9c-6.4-9.5-18-8.9-24.5,0h-20.5c-6.4-9.5-18-8.9-24.5,0h-21c-6.4-9.5-18-8.9-24.5,0h-20.9
		c-6.4-9.5-18-8.9-24.5,0h-20.5c-6.4-9.5-18-8.9-24.5,0h-21.2c-6.4-9.5-18-8.9-24.5,0H72.7c-6.4-9.5-18-8.9-24.5,0H27.7
		c-6.4-9.5-18-8.9-24.5,0H0 M935.7,536.4H933c-6.4-9.5-18-8.9-24.5,0h-20.9c-6.4-9.5-18-8.9-24.5,0h-20.5c-6.4-9.5-18-8.9-24.5,0
		h-21c-6.4-9.5-18-8.9-24.5,0h-20.9c-6.4-9.5-18-8.9-24.5,0h-20.5c-6.4-9.5-18-8.9-24.5,0h-21.2c-6.4-9.5-18-8.9-24.5,0h-20.9
		c-6.4-9.5-18-8.9-24.5,0h-20.5c-6.4-9.5-18-8.9-24.5,0h-21c-6.4-9.5-18-8.9-24.5,0h-20.9c-6.4-9.5-18-8.9-24.5,0h-20.5
		c-6.4-9.5-18-8.9-24.5,0H390c-6.4-9.5-18-8.9-24.5,0h-20.9c-6.4-9.5-18-8.9-24.5,0h-20.5c-6.4-9.5-18-8.9-24.5,0h-21
		c-6.4-9.5-18-8.9-24.5,0h-20.9c-6.4-9.5-18-8.9-24.5,0h-20.5c-6.4-9.5-18-8.9-24.5,0h-21.2c-6.4-9.5-18-8.9-24.5,0H72.7
		c-6.4-9.5-18-8.9-24.5,0H27.7c-6.4-9.5-18-8.9-24.5,0H0 M935.7,575.7H933c-6.4-9.5-18-8.9-24.5,0h-20.9c-6.4-9.5-18-8.9-24.5,0
		h-20.5c-6.4-9.5-18-8.9-24.5,0h-21c-6.4-9.5-18-8.9-24.5,0h-20.9c-6.4-9.5-18-8.9-24.5,0h-20.5c-6.4-9.5-18-8.9-24.5,0h-21.2
		c-6.4-9.5-18-8.9-24.5,0h-20.9c-6.4-9.5-18-8.9-24.5,0h-20.5c-6.4-9.5-18-8.9-24.5,0h-21c-6.4-9.5-18-8.9-24.5,0h-20.9
		c-6.4-9.5-18-8.9-24.5,0h-20.5c-6.4-9.5-18-8.9-24.5,0H390c-6.4-9.5-18-8.9-24.5,0h-20.9c-6.4-9.5-18-8.9-24.5,0h-20.5
		c-6.4-9.5-18-8.9-24.5,0h-21c-6.4-9.5-18-8.9-24.5,0h-20.9c-6.4-9.5-18-8.9-24.5,0h-20.5c-6.4-9.5-18-8.9-24.5,0h-21.2
		c-6.4-9.5-18-8.9-24.5,0H72.7c-6.4-9.5-18-8.9-24.5,0H27.7c-6.4-9.5-18-8.9-24.5,0H0 M935.7,614.9H933c-6.4-9.5-18-8.9-24.5,0
		h-20.9c-6.4-9.5-18-8.9-24.5,0h-20.5c-6.4-9.5-18-8.9-24.5,0h-21c-6.4-9.5-18-8.9-24.5,0h-20.9c-6.4-9.5-18-8.9-24.5,0h-20.5
		c-6.4-9.5-18-8.9-24.5,0h-21.2c-6.4-9.5-18-8.9-24.5,0h-20.9c-6.4-9.5-18-8.9-24.5,0h-20.5c-6.4-9.5-18-8.9-24.5,0h-21
		c-6.4-9.5-18-8.9-24.5,0h-20.9c-6.4-9.5-18-8.9-24.5,0h-20.5c-6.4-9.5-18-8.9-24.5,0H390c-6.4-9.5-18-8.9-24.5,0h-20.9
		c-6.4-9.5-18-8.9-24.5,0h-20.5c-6.4-9.5-18-8.9-24.5,0h-21c-6.4-9.5-18-8.9-24.5,0h-20.9c-6.4-9.5-18-8.9-24.5,0h-20.5
		c-6.4-9.5-18-8.9-24.5,0h-21.2c-6.4-9.5-18-8.9-24.5,0H72.7c-6.4-9.5-18-8.9-24.5,0H27.7c-6.4-9.5-18-8.9-24.5,0H0 M935.7,654.2
		H933c-6.4-9.5-18-8.9-24.5,0h-20.9c-6.4-9.5-18-8.9-24.5,0h-20.5c-6.4-9.5-18-8.9-24.5,0h-21c-6.4-9.5-18-8.9-24.5,0h-20.9
		c-6.4-9.5-18-8.9-24.5,0h-20.5c-6.4-9.5-18-8.9-24.5,0h-21.2c-6.4-9.5-18-8.9-24.5,0h-20.9c-6.4-9.5-18-8.9-24.5,0h-20.5
		c-6.4-9.5-18-8.9-24.5,0h-21c-6.4-9.5-18-8.9-24.5,0h-20.9c-6.4-9.5-18-8.9-24.5,0h-20.5c-6.4-9.5-18-8.9-24.5,0H390
		c-6.4-9.5-18-8.9-24.5,0h-20.9c-6.4-9.5-18-8.9-24.5,0h-20.5c-6.4-9.5-18-8.9-24.5,0h-21c-6.4-9.5-18-8.9-24.5,0h-20.9
		c-6.4-9.5-18-8.9-24.5,0h-20.5c-6.4-9.5-18-8.9-24.5,0h-21.2c-6.4-9.5-18-8.9-24.5,0H72.7c-6.4-9.5-18-8.9-24.5,0H27.7
		c-6.4-9.5-18-8.9-24.5,0H0"/>
	<path class="st2" d="M4,791.6L3.2,418.6 M27.7,418.6l0.8,372.9 M49.1,791.6l-0.8-372.9 M72.7,418.6l0.8,372.9 M94.4,791.6
		l-0.8-372.9 M118.1,418.6l0.8,372.9 M140.1,791.6l-0.8-372.9 M163.7,418.6l0.8,372.9 M185.1,791.6l-0.8-372.9 M208.8,418.6
		l0.8,372.9 M230.5,791.6l-0.8-372.9 M254.1,418.6l0.8,372.9 M275.8,791.7l-0.8-372.9 M299.4,418.7l0.8,372.9 M320.8,791.7
		L320,418.7 M344.5,418.7l0.8,372.9 M366.2,791.7l-0.8-372.9 M389.8,418.7l0.8,372.9 M411.9,791.7L411,418.7 M435.5,418.7l0.8,372.9
		 M456.9,791.7L456,418.7 M480.5,418.7l0.8,372.9 M502.2,791.7l-0.8-372.9 M525.9,418.7l0.8,372.9 M547.3,791.9L546.4,419
		 M570.9,419l0.8,372.9 M592.3,791.9L591.5,419 M615.9,419l0.8,372.9 M637.7,791.9L636.8,419 M661.3,419l0.8,372.9 M683.3,791.9
		L682.5,419 M707,419l0.8,372.9 M728.4,791.9L727.5,419 M752,419l0.8,372.9 M773.7,791.9L772.9,419 M797.4,419l0.8,372.9 M819,792
		l-0.8-372.9 M842.7,419.1l0.8,372.9 M864.1,792l-0.8-372.9 M887.7,419.1l0.8,372.9 M909.4,792l-0.8-372.9 M933,419.1l0.8,372.9"/>
</g>
<g>
	<path class="st1" d="M936.5,362.7h-3.2c-6.5,8.9-18.1,9.5-24.5,0h-20.5c-6.5,8.9-18.1,9.5-24.5,0H843c-6.5,8.9-18.1,9.5-24.5,0
		h-21.2c-6.5,8.9-18.1,9.5-24.5,0h-20.5c-6.5,8.9-18.1,9.5-24.5,0h-20.9c-6.5,8.9-18.1,9.5-24.5,0h-21c-6.5,8.9-18.1,9.5-24.5,0
		h-20.5c-6.5,8.9-18.1,9.5-24.5,0H571c-6.5,8.9-18.1,9.5-24.5,0h-20.3c-6.5,8.9-18.1,9.5-24.5,0h-20.5c-6.5,8.9-18.1,9.5-24.5,0
		h-20.9c-6.5,8.9-18.1,9.5-24.5,0h-21c-6.5,8.9-18.1,9.5-24.5,0h-20.5c-6.5,8.9-18.1,9.5-24.5,0h-20.9c-6.5,8.9-18.1,9.5-24.5,0
		h-21.2c-6.5,8.9-18.1,9.5-24.5,0h-20.5c-6.5,8.9-18.1,9.5-24.5,0h-20.9c-6.5,8.9-18.1,9.5-24.5,0h-21c-6.5,8.9-18.1,9.5-24.5,0
		H73.3c-6.5,8.9-18.1,9.5-24.5,0H28c-6.5,8.9-18.1,9.5-24.5,0H0.8 M0.8,343.1h2.6c6.4,9.5,18,8.9,24.5,0h20.9c6.4,9.5,18,8.9,24.5,0
		h20.5c6.4,9.5,18,8.9,24.5,0h21c6.4,9.5,18,8.9,24.5,0h20.9c6.4,9.5,18,8.9,24.5,0h20.5c6.4,9.5,18,8.9,24.5,0h21.2
		c6.4,9.5,18,8.9,24.5,0h20.9c6.4,9.5,18,8.9,24.5,0h20.5c6.4,9.5,18,8.9,24.5,0h21c6.4,9.5,18,8.9,24.5,0h20.9
		c6.4,9.5,18,8.9,24.5,0h20.5c6.4,9.5,18,8.9,24.5,0h20.3c6.4,9.5,18,8.9,24.5,0h20.9c6.4,9.5,18,8.9,24.5,0h20.5
		c6.4,9.5,18,8.9,24.5,0h21c6.4,9.5,18,8.9,24.5,0h20.9c6.4,9.5,18,8.9,24.5,0h20.5c6.4,9.5,18,8.9,24.5,0h21.2
		c6.4,9.5,18,8.9,24.5,0h20.9c6.4,9.5,18,8.9,24.5,0h20.5c6.4,9.5,18,8.9,24.5,0h3.2 M0.8,323.5h2.6c6.4,9.5,18,8.9,24.5,0h20.9
		c6.4,9.5,18,8.9,24.5,0h20.5c6.4,9.5,18,8.9,24.5,0h21c6.4,9.5,18,8.9,24.5,0h20.9c6.4,9.5,18,8.9,24.5,0h20.5
		c6.4,9.5,18,8.9,24.5,0h21.2c6.4,9.5,18,8.9,24.5,0h20.9c6.4,9.5,18,8.9,24.5,0h20.5c6.4,9.5,18,8.9,24.5,0h21
		c6.4,9.5,18,8.9,24.5,0h20.9c6.4,9.5,18,8.9,24.5,0h20.5c6.4,9.5,18,8.9,24.5,0h20.3c6.4,9.5,18,8.9,24.5,0h20.9
		c6.4,9.5,18,8.9,24.5,0h20.5c6.4,9.5,18,8.9,24.5,0h21c6.4,9.5,18,8.9,24.5,0h20.9c6.4,9.5,18,8.9,24.5,0h20.5
		c6.4,9.5,18,8.9,24.5,0h21.2c6.4,9.5,18,8.9,24.5,0h20.9c6.4,9.5,18,8.9,24.5,0h20.5c6.4,9.5,18,8.9,24.5,0h3.2 M0.8,303.9h2.6
		c6.4,9.5,18,8.9,24.5,0h20.9c6.4,9.5,18,8.9,24.5,0h20.5c6.4,9.5,18,8.9,24.5,0h21c6.4,9.5,18,8.9,24.5,0h20.9
		c6.4,9.5,18,8.9,24.5,0h20.5c6.4,9.5,18,8.9,24.5,0h21.2c6.4,9.5,18,8.9,24.5,0h20.9c6.4,9.5,18,8.9,24.5,0h20.5
		c6.4,9.5,18,8.9,24.5,0h21c6.4,9.5,18,8.9,24.5,0h20.9c6.4,9.5,18,8.9,24.5,0h20.5c6.4,9.5,18,8.9,24.5,0h20.3
		c6.4,9.5,18,8.9,24.5,0h20.9c6.4,9.5,18,8.9,24.5,0h20.5c6.4,9.5,18,8.9,24.5,0h21c6.4,9.5,18,8.9,24.5,0h20.9
		c6.4,9.5,18,8.9,24.5,0h20.5c6.4,9.5,18,8.9,24.5,0h21.2c6.4,9.5,18,8.9,24.5,0h20.9c6.4,9.5,18,8.9,24.5,0h20.5
		c6.4,9.5,18,8.9,24.5,0h3.2 M0.8,284.2h2.6c6.4,9.5,18,8.9,24.5,0h20.9c6.4,9.5,18,8.9,24.5,0h20.5c6.4,9.5,18,8.9,24.5,0h21
		c6.4,9.5,18,8.9,24.5,0h20.9c6.4,9.5,18,8.9,24.5,0h20.5c6.4,9.5,18,8.9,24.5,0h21.2c6.4,9.5,18,8.9,24.5,0h20.9
		c6.4,9.5,18,8.9,24.5,0h20.5c6.4,9.5,18,8.9,24.5,0h21c6.4,9.5,18,8.9,24.5,0h20.9c6.4,9.5,18,8.9,24.5,0h20.5
		c6.4,9.5,18,8.9,24.5,0h20.3c6.4,9.5,18,8.9,24.5,0h20.9c6.4,9.5,18,8.9,24.5,0h20.5c6.4,9.5,18,8.9,24.5,0h21
		c6.4,9.5,18,8.9,24.5,0h20.9c6.4,9.5,18,8.9,24.5,0h20.5c6.4,9.5,18,8.9,24.5,0h21.2c6.4,9.5,18,8.9,24.5,0h20.9
		c6.4,9.5,18,8.9,24.5,0h20.5c6.4,9.5,18,8.9,24.5,0h3.2 M0.8,245h2.6c6.4,9.5,18,8.9,24.5,0h20.9c6.4,9.5,18,8.9,24.5,0h20.5
		c6.4,9.5,18,8.9,24.5,0h21c6.4,9.5,18,8.9,24.5,0h20.9c6.4,9.5,18,8.9,24.5,0h20.5c6.4,9.5,18,8.9,24.5,0h21.2
		c6.4,9.5,18,8.9,24.5,0h20.9c6.4,9.5,18,8.9,24.5,0h20.5c6.4,9.5,18,8.9,24.5,0h21c6.4,9.5,18,8.9,24.5,0h20.9
		c6.4,9.5,18,8.9,24.5,0h20.5c6.4,9.5,18,8.9,24.5,0h20.3c6.4,9.5,18,8.9,24.5,0h20.9c6.4,9.5,18,8.9,24.5,0h20.5
		c6.4,9.5,18,8.9,24.5,0h21c6.4,9.5,18,8.9,24.5,0h20.9c6.4,9.5,18,8.9,24.5,0h20.5c6.4,9.5,18,8.9,24.5,0h21.2
		c6.4,9.5,18,8.9,24.5,0h20.9c6.4,9.5,18,8.9,24.5,0h20.5c6.4,9.5,18,8.9,24.5,0h3.2 M0.8,205.7h2.6c6.4,9.5,18,8.9,24.5,0h20.9
		c6.4,9.5,18,8.9,24.5,0h20.5c6.4,9.5,18,8.9,24.5,0h21c6.4,9.5,18,8.9,24.5,0h20.9c6.4,9.5,18,8.9,24.5,0h20.5
		c6.4,9.5,18,8.9,24.5,0h21.2c6.4,9.5,18,8.9,24.5,0h20.9c6.4,9.5,18,8.9,24.5,0h20.5c6.4,9.5,18,8.9,24.5,0h21
		c6.4,9.5,18,8.9,24.5,0h20.9c6.4,9.5,18,8.9,24.5,0h20.5c6.4,9.5,18,8.9,24.5,0h20.3c6.4,9.5,18,8.9,24.5,0h20.9
		c6.4,9.5,18,8.9,24.5,0h20.5c6.4,9.5,18,8.9,24.5,0h21c6.4,9.5,18,8.9,24.5,0h20.9c6.4,9.5,18,8.9,24.5,0h20.5
		c6.4,9.5,18,8.9,24.5,0h21.2c6.4,9.5,18,8.9,24.5,0h20.9c6.4,9.5,18,8.9,24.5,0h20.5c6.4,9.5,18,8.9,24.5,0h3.2 M0.8,166.5h2.6
		c6.4,9.5,18,8.9,24.5,0h20.9c6.4,9.5,18,8.9,24.5,0h20.5c6.4,9.5,18,8.9,24.5,0h21c6.4,9.5,18,8.9,24.5,0h20.9
		c6.4,9.5,18,8.9,24.5,0h20.5c6.4,9.5,18,8.9,24.5,0h21.2c6.4,9.5,18,8.9,24.5,0h20.9c6.4,9.5,18,8.9,24.5,0h20.5
		c6.4,9.5,18,8.9,24.5,0h21c6.4,9.5,18,8.9,24.5,0h20.9c6.4,9.5,18,8.9,24.5,0h20.5c6.4,9.5,18,8.9,24.5,0h20.3
		c6.4,9.5,18,8.9,24.5,0h20.9c6.4,9.5,18,8.9,24.5,0h20.5c6.4,9.5,18,8.9,24.5,0h21c6.4,9.5,18,8.9,24.5,0h20.9
		c6.4,9.5,18,8.9,24.5,0h20.5c6.4,9.5,18,8.9,24.5,0h21.2c6.4,9.5,18,8.9,24.5,0h20.9c6.4,9.5,18,8.9,24.5,0h20.5
		c6.4,9.5,18,8.9,24.5,0h3.2 M0.8,127.2h2.6c6.4,9.5,18,8.9,24.5,0h20.9c6.4,9.5,18,8.9,24.5,0h20.5c6.4,9.5,18,8.9,24.5,0h21
		c6.4,9.5,18,8.9,24.5,0h20.9c6.4,9.5,18,8.9,24.5,0h20.5c6.4,9.5,18,8.9,24.5,0h21.2c6.4,9.5,18,8.9,24.5,0h20.9
		c6.4,9.5,18,8.9,24.5,0h20.5c6.4,9.5,18,8.9,24.5,0h21c6.4,9.5,18,8.9,24.5,0h20.9c6.4,9.5,18,8.9,24.5,0h20.5
		c6.4,9.5,18,8.9,24.5,0h20.3c6.4,9.5,18,8.9,24.5,0h20.9c6.4,9.5,18,8.9,24.5,0h20.5c6.4,9.5,18,8.9,24.5,0h21
		c6.4,9.5,18,8.9,24.5,0h20.9c6.4,9.5,18,8.9,24.5,0h20.5c6.4,9.5,18,8.9,24.5,0h21.2c6.4,9.5,18,8.9,24.5,0h20.9
		c6.4,9.5,18,8.9,24.5,0h20.5c6.4,9.5,18,8.9,24.5,0h3.2 M0.8,107.6h2.6c6.4,9.5,18,8.9,24.5,0h20.9c6.4,9.5,18,8.9,24.5,0h20.5
		c6.4,9.5,18,8.9,24.5,0h21c6.4,9.5,18,8.9,24.5,0h20.9c6.4,9.5,18,8.9,24.5,0h20.5c6.4,9.5,18,8.9,24.5,0h21.2
		c6.4,9.5,18,8.9,24.5,0h20.9c6.4,9.5,18,8.9,24.5,0h20.5c6.4,9.5,18,8.9,24.5,0h21c6.4,9.5,18,8.9,24.5,0h20.9
		c6.4,9.5,18,8.9,24.5,0h20.5c6.4,9.5,18,8.9,24.5,0h20.3c6.4,9.5,18,8.9,24.5,0h20.9c6.4,9.5,18,8.9,24.5,0h20.5
		c6.4,9.5,18,8.9,24.5,0h21c6.4,9.5,18,8.9,24.5,0h20.9c6.4,9.5,18,8.9,24.5,0h20.5c6.4,9.5,18,8.9,24.5,0h21.2
		c6.4,9.5,18,8.9,24.5,0h20.9c6.4,9.5,18,8.9,24.5,0h20.5c6.4,9.5,18,8.9,24.5,0h3.2 M0.8,87.9h2.6c6.4,9.5,18,8.9,24.5,0h20.9
		c6.4,9.5,18,8.9,24.5,0h20.5c6.4,9.5,18,8.9,24.5,0h21c6.4,9.5,18,8.9,24.5,0h20.9c6.4,9.5,18,8.9,24.5,0h20.5
		c6.4,9.5,18,8.9,24.5,0h21.2c6.4,9.5,18,8.9,24.5,0h20.9c6.4,9.5,18,8.9,24.5,0h20.5c6.4,9.5,18,8.9,24.5,0h21
		c6.4,9.5,18,8.9,24.5,0h20.9c6.4,9.5,18,8.9,24.5,0h20.5c6.4,9.5,18,8.9,24.5,0h20.3c6.4,9.5,18,8.9,24.5,0h20.9
		c6.4,9.5,18,8.9,24.5,0h20.5c6.4,9.5,18,8.9,24.5,0h21c6.4,9.5,18,8.9,24.5,0h20.9c6.4,9.5,18,8.9,24.5,0h20.5
		c6.4,9.5,18,8.9,24.5,0h21.2c6.4,9.5,18,8.9,24.5,0h20.9c6.4,9.5,18,8.9,24.5,0h20.5c6.4,9.5,18,8.9,24.5,0h3.2 M0.8,68.3h2.6
		c6.4,9.5,18,8.9,24.5,0h20.9c6.4,9.5,18,8.9,24.5,0h20.5c6.4,9.5,18,8.9,24.5,0h21c6.4,9.5,18,8.9,24.5,0h20.9
		c6.4,9.5,18,8.9,24.5,0h20.5c6.4,9.5,18,8.9,24.5,0h21.2c6.4,9.5,18,8.9,24.5,0h20.9c6.4,9.5,18,8.9,24.5,0h20.5
		c6.4,9.5,18,8.9,24.5,0h21c6.4,9.5,18,8.9,24.5,0h20.9c6.4,9.5,18,8.9,24.5,0h20.5c6.4,9.5,18,8.9,24.5,0h20.3
		c6.4,9.5,18,8.9,24.5,0h20.9c6.4,9.5,18,8.9,24.5,0h20.5c6.4,9.5,18,8.9,24.5,0h21c6.4,9.5,18,8.9,24.5,0h20.9
		c6.4,9.5,18,8.9,24.5,0h20.5c6.4,9.5,18,8.9,24.5,0h21.2c6.4,9.5,18,8.9,24.5,0h20.9c6.4,9.5,18,8.9,24.5,0h20.5
		c6.4,9.5,18,8.9,24.5,0h3.2 M0.8,48.7h2.6c6.4,9.5,18,8.9,24.5,0h20.9c6.4,9.5,18,8.9,24.5,0h20.5c6.4,9.5,18,8.9,24.5,0h21
		c6.4,9.5,18,8.9,24.5,0h20.9c6.4,9.5,18,8.9,24.5,0h20.5c6.4,9.5,18,8.9,24.5,0h21.2c6.4,9.5,18,8.9,24.5,0h20.9
		c6.4,9.5,18,8.9,24.5,0h20.5c6.4,9.5,18,8.9,24.5,0h21c6.4,9.5,18,8.9,24.5,0h20.9c6.4,9.5,18,8.9,24.5,0h20.5
		c6.4,9.5,18,8.9,24.5,0h20.3c6.4,9.5,18,8.9,24.5,0h20.9c6.4,9.5,18,8.9,24.5,0h20.5c6.4,9.5,18,8.9,24.5,0h21
		c6.4,9.5,18,8.9,24.5,0h20.9c6.4,9.5,18,8.9,24.5,0h20.5c6.4,9.5,18,8.9,24.5,0h21.2c6.4,9.5,18,8.9,24.5,0h20.9
		c6.4,9.5,18,8.9,24.5,0h20.5c6.4,9.5,18,8.9,24.5,0h3.2 M0.8,29.1h2.6c6.4,9.5,18,8.9,24.5,0h20.9c6.4,9.5,18,8.9,24.5,0h20.5
		c6.4,9.5,18,8.9,24.5,0h21c6.4,9.5,18,8.9,24.5,0h20.9c6.4,9.5,18,8.9,24.5,0h20.5c6.4,9.5,18,8.9,24.5,0h21.2
		c6.4,9.5,18,8.9,24.5,0h20.9c6.4,9.5,18,8.9,24.5,0h20.5c6.4,9.5,18,8.9,24.5,0h21c6.4,9.5,18,8.9,24.5,0h20.9
		c6.4,9.5,18,8.9,24.5,0h20.5c6.4,9.5,18,8.9,24.5,0h20.3c6.4,9.5,18,8.9,24.5,0h20.9c6.4,9.5,18,8.9,24.5,0h20.5
		c6.4,9.5,18,8.9,24.5,0h21c6.4,9.5,18,8.9,24.5,0h20.9c6.4,9.5,18,8.9,24.5,0h20.5c6.4,9.5,18,8.9,24.5,0h21.2
		c6.4,9.5,18,8.9,24.5,0h20.9c6.4,9.5,18,8.9,24.5,0h20.5c6.4,9.5,18,8.9,24.5,0h3.2 M0,9.4h2.6c6.4,9.5,18,8.9,24.5,0H48
		c6.4,9.5,18,8.9,24.5,0H93c6.4,9.5,18,8.9,24.5,0h21c6.4,9.5,18,8.9,24.5,0h20.9c6.4,9.5,18,8.9,24.5,0h20.5c6.4,9.5,18,8.9,24.5,0
		h21.2c6.4,9.5,18,8.9,24.5,0H320c6.4,9.5,18,8.9,24.5,0H365c6.4,9.5,18,8.9,24.5,0h21c6.4,9.5,18,8.9,24.5,0h20.9
		c6.4,9.5,18,8.9,24.5,0h20.5c6.4,9.5,18,8.9,24.5,0h20.3c6.4,9.5,18,8.9,24.5,0H591c6.4,9.5,18,8.9,24.5,0h20.5
		c6.4,9.5,18,8.9,24.5,0h21c6.4,9.5,18,8.9,24.5,0h20.9c6.4,9.5,18,8.9,24.5,0H772c6.4,9.5,18,8.9,24.5,0h21.2
		c6.4,9.5,18,8.9,24.5,0H863c6.4,9.5,18,8.9,24.5,0H908c6.4,9.5,18,8.9,24.5,0h3.2 M0.8,382.4h2.6c6.4,9.5,18,8.9,24.5,0h20.9
		c6.4,9.5,18,8.9,24.5,0h20.5c6.4,9.5,18,8.9,24.5,0h21c6.4,9.5,18,8.9,24.5,0h20.9c6.4,9.5,18,8.9,24.5,0h20.5
		c6.4,9.5,18,8.9,24.5,0h21.2c6.4,9.5,18,8.9,24.5,0h20.9c6.4,9.5,18,8.9,24.5,0h20.5c6.4,9.5,18,8.9,24.5,0h21
		c6.4,9.5,18,8.9,24.5,0h20.9c6.4,9.5,18,8.9,24.5,0h20.5c6.4,9.5,18,8.9,24.5,0h20.3c6.4,9.5,18,8.9,24.5,0h20.9
		c6.4,9.5,18,8.9,24.5,0h20.5c6.4,9.5,18,8.9,24.5,0h21c6.4,9.5,18,8.9,24.5,0h20.9c6.4,9.5,18,8.9,24.5,0h20.5
		c6.4,9.5,18,8.9,24.5,0h21.2c6.4,9.5,18,8.9,24.5,0h20.9c6.4,9.5,18,8.9,24.5,0h20.5c6.4,9.5,18,8.9,24.5,0h3.2 M0.8,264.6h2.6
		c6.4,9.5,18,8.9,24.5,0h20.9c6.4,9.5,18,8.9,24.5,0h20.5c6.4,9.5,18,8.9,24.5,0h21c6.4,9.5,18,8.9,24.5,0h20.9
		c6.4,9.5,18,8.9,24.5,0h20.5c6.4,9.5,18,8.9,24.5,0h21.2c6.4,9.5,18,8.9,24.5,0h20.9c6.4,9.5,18,8.9,24.5,0h20.5
		c6.4,9.5,18,8.9,24.5,0h21c6.4,9.5,18,8.9,24.5,0h20.9c6.4,9.5,18,8.9,24.5,0h20.5c6.4,9.5,18,8.9,24.5,0h20.3
		c6.4,9.5,18,8.9,24.5,0h20.9c6.4,9.5,18,8.9,24.5,0h20.5c6.4,9.5,18,8.9,24.5,0h21c6.4,9.5,18,8.9,24.5,0h20.9
		c6.4,9.5,18,8.9,24.5,0h20.5c6.4,9.5,18,8.9,24.5,0h21.2c6.4,9.5,18,8.9,24.5,0h20.9c6.4,9.5,18,8.9,24.5,0h20.5
		c6.4,9.5,18,8.9,24.5,0h3.2 M0.8,225.3h2.6c6.4,9.5,18,8.9,24.5,0h20.9c6.4,9.5,18,8.9,24.5,0h20.5c6.4,9.5,18,8.9,24.5,0h21
		c6.4,9.5,18,8.9,24.5,0h20.9c6.4,9.5,18,8.9,24.5,0h20.5c6.4,9.5,18,8.9,24.5,0h21.2c6.4,9.5,18,8.9,24.5,0h20.9
		c6.4,9.5,18,8.9,24.5,0h20.5c6.4,9.5,18,8.9,24.5,0h21c6.4,9.5,18,8.9,24.5,0h20.9c6.4,9.5,18,8.9,24.5,0h20.5
		c6.4,9.5,18,8.9,24.5,0h20.3c6.4,9.5,18,8.9,24.5,0h20.9c6.4,9.5,18,8.9,24.5,0h20.5c6.4,9.5,18,8.9,24.5,0h21
		c6.4,9.5,18,8.9,24.5,0h20.9c6.4,9.5,18,8.9,24.5,0h20.5c6.4,9.5,18,8.9,24.5,0h21.2c6.4,9.5,18,8.9,24.5,0h20.9
		c6.4,9.5,18,8.9,24.5,0h20.5c6.4,9.5,18,8.9,24.5,0h3.2 M0.8,186.1h2.6c6.4,9.5,18,8.9,24.5,0h20.9c6.4,9.5,18,8.9,24.5,0h20.5
		c6.4,9.5,18,8.9,24.5,0h21c6.4,9.5,18,8.9,24.5,0h20.9c6.4,9.5,18,8.9,24.5,0h20.5c6.4,9.5,18,8.9,24.5,0h21.2
		c6.4,9.5,18,8.9,24.5,0h20.9c6.4,9.5,18,8.9,24.5,0h20.5c6.4,9.5,18,8.9,24.5,0h21c6.4,9.5,18,8.9,24.5,0h20.9
		c6.4,9.5,18,8.9,24.5,0h20.5c6.4,9.5,18,8.9,24.5,0h20.3c6.4,9.5,18,8.9,24.5,0h20.9c6.4,9.5,18,8.9,24.5,0h20.5
		c6.4,9.5,18,8.9,24.5,0h21c6.4,9.5,18,8.9,24.5,0h20.9c6.4,9.5,18,8.9,24.5,0h20.5c6.4,9.5,18,8.9,24.5,0h21.2
		c6.4,9.5,18,8.9,24.5,0h20.9c6.4,9.5,18,8.9,24.5,0h20.5c6.4,9.5,18,8.9,24.5,0h3.2 M0.8,146.8h2.6c6.4,9.5,18,8.9,24.5,0h20.9
		c6.4,9.5,18,8.9,24.5,0h20.5c6.4,9.5,18,8.9,24.5,0h21c6.4,9.5,18,8.9,24.5,0h20.9c6.4,9.5,18,8.9,24.5,0h20.5
		c6.4,9.5,18,8.9,24.5,0h21.2c6.4,9.5,18,8.9,24.5,0h20.9c6.4,9.5,18,8.9,24.5,0h20.5c6.4,9.5,18,8.9,24.5,0h21
		c6.4,9.5,18,8.9,24.5,0h20.9c6.4,9.5,18,8.9,24.5,0h20.5c6.4,9.5,18,8.9,24.5,0h20.3c6.4,9.5,18,8.9,24.5,0h20.9
		c6.4,9.5,18,8.9,24.5,0h20.5c6.4,9.5,18,8.9,24.5,0h21c6.4,9.5,18,8.9,24.5,0h20.9c6.4,9.5,18,8.9,24.5,0h20.5
		c6.4,9.5,18,8.9,24.5,0h21.2c6.4,9.5,18,8.9,24.5,0h20.9c6.4,9.5,18,8.9,24.5,0h20.5c6.4,9.5,18,8.9,24.5,0h3.2"/>
	<path class="st2" d="M932.5,9.4l0.8,372.9 M908.9,382.4L908,9.4 M887.5,9.4l0.8,372.9 M863.8,382.4L863,9.4 M842.1,9.4l0.8,372.9
		 M818.5,382.4L817.6,9.4 M796.4,9.4l0.8,372.9 M772.8,382.4L772,9.4 M751.4,9.4l0.8,372.9 M727.8,382.4L726.9,9.4 M706.1,9.4
		l0.8,372.9 M682.4,382.4L681.6,9.4 M660.7,9.3l0.8,372.9 M637.1,382.3L636.3,9.3 M615.7,9.3l0.8,372.9 M592.1,382.3L591.2,9.3
		 M570.4,9.3l0.8,372.9 M546.7,382.3L545.9,9.3 M524.7,9.3l0.8,372.9 M501,382.3L500.2,9.3 M479.7,9.3l0.8,372.9 M456,382.3
		L455.2,9.3 M434.3,9.3l0.8,372.9 M410.7,382.3L409.8,9.3 M389.3,9.1l0.8,372.9 M365.6,382L364.8,9.1 M344.2,9.1l0.8,372.9
		 M320.6,382L319.8,9.1 M298.9,9.1l0.8,372.9 M275.2,382L274.4,9.1 M253.2,9.1L254,382 M229.6,382L228.7,9.1 M208.2,9.1L209,382
		 M184.5,382L183.7,9.1 M162.8,9.1l0.8,372.9 M139.2,382L138.3,9.1 M117.5,9l0.8,372.9 M93.9,381.9L93,9 M72.5,9l0.8,372.9
		 M48.8,381.9L48,9 M27.1,9L28,381.9 M3.5,381.9L2.7,9"/>
</g>
<g>
</g>
<g>
</g>
<g>
</g>
<g>
</g>
<g>
</g>
</svg>
