<?xml version="1.0" encoding="utf-8"?>
<!-- Generator: Adobe Illustrator 22.1.0, SVG Export Plug-In . SVG Version: 6.00 Build 0)  -->
<svg version="1.1" id="Layer_1" xmlns="http://www.w3.org/2000/svg" xmlns:xlink="http://www.w3.org/1999/xlink" x="0px" y="0px"
	 width="1368px" height="792px" viewBox="0 0 1368 792" style="enable-background:new 0 0 1368 792;" xml:space="preserve">
<style type="text/css">
	.st0{fill:none;stroke:#0000FF;stroke-miterlimit:10;}
	.st1{fill:none;stroke:#FF0000;stroke-miterlimit:10;}
</style>
<g>
	<g>
		<path class="st0" d="M576.6,413.2l-32-28l-20.6-18l-50.4-44l-8.2-7.2L453,305.2l-8.2-7.2l-35.4-30.9l-9-7.9l-14.2-12.4l-20.6-18
			l-42.9-37.5l-9.3-8.1l-4.5-3.9l-4.5,3.9l-9,7.9l0.1,0.1l0,0L21,431.2v0.1v4v14v5.8v183.2v18v81.5v17.5v0.5h576v-0.5v-17.5v-81.5
			v-18V454.6v-5.4v-14v-4V431L576.6,413.2z M518.7,386.3H395.5v-63h51.2L518.7,386.3z M426,305.3h-30.6v-26.7L426,305.3z
			 M386.5,270.7v34.6h-13.6v18h13.6v63h-73V270.8h72.8l-20.6-18h-52.2v-46L386.5,270.7z M231.8,638.2v-189h154.7v189H231.8z
			 M386.5,656.2v81.5H231.8v-81.5H386.5z M222.8,328.3v58H99.6l66.4-58H222.8z M186.6,310.3l36.2-31.6v31.6H186.6z M231.8,328.3
			h14.9v-18h-14.9v-39.4h72.7v115.5h-72.7V328.3z M252.3,252.8l52.1-45.5v45.5H252.3z M304.5,404.3v27h-72.7v-27H304.5z
			 M313.5,431.2v-27h73v27H313.5z M79,404.3h143.8v27H48.2L79,404.3z M39,449.2h183.8v189H39V449.2z M39,656.2h183.8v81.5H39V656.2z
			 M579,737.7H395.5v-81.5H579V737.7z M395.5,638.2v-189H579v189H395.5z M395.5,431.2v-27h143.9l30.8,27H395.5z"/>
		<g>
			<rect x="266" y="496.7" class="st1" width="90" height="90"/>
		</g>
	</g>
	<polygon class="st1" points="588,449.7 588,467.7 597,467.7 597,485.7 588,485.7 588,503.7 597,503.7 597,521.7 588,521.7 
		588,539.7 597,539.7 597,557.7 588,557.7 588,575.7 597,575.7 597,593.7 588,593.7 588,611.7 597,611.7 597,629.7 588,629.7 
		588,647.7 597,647.7 597,665.7 588,665.7 588,683.7 597,683.7 597,701.7 588,701.7 588,719.7 597,719.7 597,737.7 588,737.7 
		588,755.7 30,755.7 30,737.7 21,737.7 21,719.7 30,719.7 30,701.7 21,701.7 21,683.7 30,683.7 30,665.7 21,665.7 21,647.7 
		30,647.7 30,629.7 21,629.7 21,611.7 30,611.7 30,593.7 21,593.7 21,575.7 30,575.7 30,557.7 21,557.7 21,539.7 30,539.7 30,521.7 
		21,521.7 21,503.7 30,503.7 30,485.7 21,485.7 21,467.7 30,467.7 30,449.7 21,449.7 21,431.5 41.3,413.7 73.3,385.8 93.9,367.8 
		144.2,323.7 152.5,316.5 164.8,305.7 173.1,298.5 205.8,269.9 214.8,262.1 231.7,247.3 252.3,229.3 295.4,191.6 304.5,183.7 
		309,179.8 309.1,179.8 313.5,183.7 322.7,191.8 365.7,229.3 386.2,247.3 400.5,259.7 409.5,267.6 444.9,298.5 453.1,305.7 
		465.4,316.5 473.7,323.7 524,367.8 544.6,385.8 576.6,413.7 597,431.5 597,449.7 	"/>
</g>
<g>
	<g>
		<path class="st0" d="M1158.5,413.2l-32-28l-20.6-18l-50.4-44l-8.2-7.2l-12.4-10.8l-8.2-7.2l-35.4-30.9l-9-7.9l-14.2-12.4l-20.6-18
			l-42.9-37.5l-9.3-8.1l-4.5-3.9l-4.5,3.9l-9,7.9l0.1,0.1l0,0l-274.5,240v0.1v4v14v5.8v183.2v18v81.5v17.5v0.5h576v-0.5v-17.5v-81.5
			v-18V454.6v-5.4v-14v-4V431L1158.5,413.2z M1100.7,386.3H977.4v-63h51.2L1100.7,386.3z M1007.9,305.3h-30.6v-26.7L1007.9,305.3z
			 M968.4,270.7v34.6h-13.6v18h13.6v63h-73V270.8h72.8l-20.6-18h-52.2v-46L968.4,270.7z M813.7,638.2v-189h154.7v189H813.7z
			 M968.4,656.2v81.5H813.7v-81.5H968.4z M804.7,328.3v58H681.5l66.4-58H804.7z M768.5,310.3l36.2-31.6v31.6H768.5z M813.7,328.3
			h14.9v-18h-14.9v-39.4h72.7v115.5h-72.7V328.3z M834.3,252.8l52.1-45.5v45.5H834.3z M886.4,404.3v27h-72.7v-27H886.4z
			 M895.4,431.2v-27h73v27H895.4z M660.9,404.3h143.8v27H630.1L660.9,404.3z M620.9,449.2h183.8v189H620.9V449.2z M620.9,656.2
			h183.8v81.5H620.9V656.2z M1160.9,737.7H977.4v-81.5h183.5V737.7z M977.4,638.2v-189h183.5v189H977.4z M977.4,431.2v-27h143.9
			l30.8,27H977.4z"/>
		<g>
			<rect x="847.9" y="496.7" class="st1" width="90" height="90"/>
		</g>
	</g>
	<polygon class="st1" points="1169.9,449.7 1169.9,467.7 1178.9,467.7 1178.9,485.7 1169.9,485.7 1169.9,503.7 1178.9,503.7 
		1178.9,521.7 1169.9,521.7 1169.9,539.7 1178.9,539.7 1178.9,557.7 1169.9,557.7 1169.9,575.7 1178.9,575.7 1178.9,593.7 
		1169.9,593.7 1169.9,611.7 1178.9,611.7 1178.9,629.7 1169.9,629.7 1169.9,647.7 1178.9,647.7 1178.9,665.7 1169.9,665.7 
		1169.9,683.7 1178.9,683.7 1178.9,701.7 1169.9,701.7 1169.9,719.7 1178.9,719.7 1178.9,737.7 1169.9,737.7 1169.9,755.7 
		611.9,755.7 611.9,737.7 602.9,737.7 602.9,719.7 611.9,719.7 611.9,701.7 602.9,701.7 602.9,683.7 611.9,683.7 611.9,665.7 
		602.9,665.7 602.9,647.7 611.9,647.7 611.9,629.7 602.9,629.7 602.9,611.7 611.9,611.7 611.9,593.7 602.9,593.7 602.9,575.7 
		611.9,575.7 611.9,557.7 602.9,557.7 602.9,539.7 611.9,539.7 611.9,521.7 602.9,521.7 602.9,503.7 611.9,503.7 611.9,485.7 
		602.9,485.7 602.9,467.7 611.9,467.7 611.9,449.7 602.9,449.7 602.9,431.5 623.2,413.7 655.2,385.8 675.8,367.8 726.2,323.7 
		734.4,316.5 746.8,305.7 755,298.5 787.7,269.9 796.7,262.1 813.6,247.3 834.2,229.3 877.3,191.6 886.4,183.7 890.9,179.8 
		891,179.8 895.4,183.7 904.7,191.8 947.6,229.3 968.2,247.3 982.4,259.7 991.4,267.6 1026.8,298.5 1035,305.7 1047.4,316.5 
		1055.6,323.7 1106,367.8 1126.6,385.8 1158.5,413.7 1178.9,431.5 1178.9,449.7 	"/>
</g>
<path class="st1" d="M1118.9,215.2c0-28.7-18.7-43.3-29.8-43.5c-18.7,0-960.1,0-960.1,0s-29.8,14.8-29.8,43.5
	c-9.1-6.7-15.2-16.5-16.1-27.7c0-26.5,14.4-44.7,44.7-44.7c0,0,55.5,0,139.9,0v-41.7h-18V87.7h54v13.4h-18v41.7
	c179.1,0,469.4,0,648,0v-41.7h-18V87.7h54v13.4h-18v41.7c83.7,0,138.7,0,138.7,0c30.3,0,44.7,18.1,44.7,44.6
	C1134.1,198.7,1128,208.5,1118.9,215.2z"/>
</svg>
