<?xml version="1.0" encoding="utf-8"?>
<!-- Generator: Adobe Illustrator 22.1.0, SVG Export Plug-In . SVG Version: 6.00 Build 0)  -->
<svg version="1.1" id="Layer_1" xmlns="http://www.w3.org/2000/svg" xmlns:xlink="http://www.w3.org/1999/xlink" x="0px" y="0px"
	 width="1368px" height="792px" viewBox="0 0 1368 792" style="enable-background:new 0 0 1368 792;" xml:space="preserve">
<style type="text/css">
	.st0{fill:none;stroke:#FF0000;stroke-miterlimit:10;}
</style>
<path class="st0" d="M63.8,60v324h864V60H63.8z M166.9,366H81.8v-81.5h85.1V366z M166.9,266.5H81.8V149.7h85.1V266.5z M166.9,140.7
	H81.8V77.9h85.1V140.7z M348.2,366H175.9v-81.5h172.3V366z M348.2,149.7v116.8H175.9V149.7v-9V77.9h172.3v62.8V149.7z M450.3,366
	h-93.1v-81.5h93.1V366z M450.3,266.5h-93.1V149.7h93.1V266.5z M450.3,140.7h-93.1V77.9h93.1V140.7z M720.3,366h-252V78h252V366z
	 M909.8,366H738.3v-81.5h171.6L909.8,366L909.8,366z M909.8,149.7v116.8H738.3V149.7v-9V77.9h171.6v62.8L909.8,149.7L909.8,149.7z"
	/>
<path class="st0" d="M63.8,408v324h864V408H63.8z M166.9,714H81.8v-81.5h85.1V714z M166.9,614.5H81.8V497.7h85.1V614.5z
	 M166.9,488.8H81.8V426h85.1V488.8z M348.2,714H175.9v-81.5h172.3V714z M348.2,497.8v116.7H175.9V497.7v-9v-62.8h172.3v62.8V497.8z
	 M450.3,714h-93.1v-81.5h93.1V714z M450.3,614.5h-93.1V497.7h93.1V614.5z M450.3,488.8h-93.1V426h93.1V488.8z M720.3,714h-252V426
	h252V714z M909.8,714H738.3v-81.5h171.6L909.8,714L909.8,714z M909.8,497.8v116.7H738.3V497.7v-9v-62.8h171.6v62.8L909.8,497.8
	L909.8,497.8z"/>
<path class="st0" d="M889.9,635.2v20.6h-4.2v-20.6h-17.1v20.6h-4.2v-20.6h-17.1v20.6h-4.1v-20.6h-17.1v20.6h-4.2v-20.6h-17.1v20.6
	h-4.2v-20.6h-17.1v20.6h-4.2v-20.6h-17.1v20.6h-4v-20.6h-17.1v76.2h17.1v-19.2h4.2v19.2h17.1v-19.2h4.2v19.2h17.1v-19.2h4.2v19.2
	h17.1v-19.2h4.2v19.2h16.9v-19.2h4.2v19.2h17.1v-19.2h4.2v19.2h17.1v-19.2h4.2v19.2h17.1v-76.2H889.9z M758.2,687.6v-27.3h4.2v27.3
	H758.2z M779.4,687.6v-27.3h4.2v27.3H779.4z M800.7,687.6v-27.3h4.2v27.3H800.7z M822,687.6v-27.3h4.2v27.3H822z M843.2,687.6v-27.3
	h4.2v27.3H843.2z M864.5,687.6v-27.3h4.2v27.3H864.5z M885.8,687.6v-27.3h4.2v27.3H885.8z"/>
<path class="st0" d="M427.6,635.2v19.9h-2.8v-19.9h-19.7v19.9h-2.8v-19.9h-19.7v19.9h-2.8v-19.9h-19.6v76.2h19.7v-19.9h2.8v19.9
	h19.7v-19.9h2.8v19.9h19.7v-19.9h2.8v19.9h19.7v-76.2H427.6z M379.8,686.9v-27.3h2.8v27.3H379.8z M402.3,686.9v-27.3h2.8v27.3H402.3
	z M424.8,686.9v-27.3h2.8v27.3H424.8z"/>
<path class="st0" d="M328.4,635.2v19.9h-4.3v-19.9H307v19.9h-4.3v-19.9h-17.1v19.9h-4.3v-19.9h-17.1v19.9h-4.3v-19.9h-17.1v19.9
	h-4.3v-19.9h-17.1v19.9h-4.3v-19.9H200v19.9h-4.3v-19.9h-17.1v76.2h17.1v-19.9h4.3v19.9h17.1v-19.9h4.3v19.9h17.1v-19.9h4.3v19.9
	h17.1v-19.9h4.3v19.9h17.1v-19.9h4.3v19.9h17.1v-19.9h4.3v19.9h17.1v-19.9h4.3v19.9h17.1v-76.2H328.4z M195.7,686.9v-27.3h4.3v27.3
	H195.7z M217.1,686.9v-27.3h4.3v27.3H217.1z M238.5,686.9v-27.3h4.3v27.3H238.5z M259.9,686.9v-27.3h4.3v27.3H259.9z M281.3,686.9
	v-27.3h4.3v27.3H281.3z M302.7,686.9v-27.3h4.3v27.3H302.7z M324.1,686.9v-27.3h4.3v27.3H324.1z"/>
<path class="st0" d="M146.8,635.2v19.9h-3.5v-19.9h-17.1v19.9h-3.5v-19.9h-17v19.9h-3.5v-19.9H85.1v76.2h17.1v-19.9h3.5v19.9h17.1
	v-19.9h3.5v19.9h17.1v-19.9h3.5v19.9H164v-76.2H146.8z M102.2,686.9v-27.3h3.5v27.3H102.2z M122.8,686.9v-27.3h3.5v27.3H122.8z
	 M143.3,686.9v-27.3h3.5v27.3H143.3z"/>
<g>
	<path class="st0" d="M493.4,228.5v9v4.5v6.4v4.5v6.4v4.5v6.4v4.5v6.4v4.5v6.4v4.5v6.4v4.5v6.4v4.5v9h9l0,0h4.5l0,0h6.4l0,0h4.5l0,0
		h6.4l0,0h4.5l0,0h6.4l0,0h4.5l0,0h6.4l0,0h4.5l0,0h6.4l0,0h4.5l0,0h6.4l0,0h4.5l0,0h6.4l0,0h4.5l0,0h9v-9v-4.5v-6.4v-4.5v-6.4V292
		v-6.4v-4.5v-6.4v-4.5v-6.4v-4.5v-6.4v-4.5V242v-4.5v-9H493.4z M506.9,292.1v-6.4h6.4v6.4H506.9z M513.4,296.6v6.4H507v-6.4H513.4z
		 M506.9,281.2v-6.4h6.4v6.4H506.9z M506.9,270.2v-6.4h6.4v6.4H506.9z M506.9,259.3v-6.4h6.4v6.4H506.9z M506.9,248.4V242h6.4v6.4
		H506.9z M506.9,307.5h6.4v6.4h-6.4V307.5z M506.9,237.5V233h6.4v4.5H506.9z M517.9,292.1v-6.4h6.4v6.4H517.9z M524.3,296.6v6.4
		h-6.4v-6.4H524.3z M517.9,281.2v-6.4h6.4v6.4H517.9z M517.9,270.2v-6.4h6.4v6.4H517.9z M517.9,259.3v-6.4h6.4v6.4H517.9z
		 M517.9,248.4V242h6.4v6.4H517.9z M517.9,307.5h6.4v6.4h-6.4L517.9,307.5L517.9,307.5z M517.9,237.5V233h6.4v4.5H517.9z
		 M528.8,292.1v-6.4h6.4v6.4H528.8z M535.2,296.6v6.4h-6.4v-6.4H535.2z M528.8,281.2v-6.4h6.4v6.4H528.8z M528.8,270.2v-6.4h6.4v6.4
		H528.8z M528.8,259.3v-6.4h6.4v6.4H528.8z M528.8,248.4V242h6.4v6.4H528.8z M528.8,307.5h6.4v6.4h-6.4V307.5z M528.8,237.5V233h6.4
		v4.5H528.8z M539.7,292.1v-6.4h6.4v6.4H539.7z M546.1,296.6v6.4h-6.4v-6.4H546.1z M539.7,281.2v-6.4h6.4v6.4H539.7z M539.7,270.2
		v-6.4h6.4v6.4H539.7z M539.7,259.3v-6.4h6.4v6.4H539.7z M539.7,248.4V242h6.4v6.4H539.7z M539.7,307.5h6.4v6.4h-6.4V307.5z
		 M539.7,237.5V233h6.4v4.5H539.7z M550.6,292.1v-6.4h6.4v6.4H550.6z M557.1,296.6v6.4h-6.4v-6.4H557.1z M550.6,281.2v-6.4h6.4v6.4
		H550.6z M550.6,270.2v-6.4h6.4v6.4H550.6z M550.6,259.3v-6.4h6.4v6.4H550.6z M550.6,248.4V242h6.4v6.4H550.6z M550.6,307.5h6.4v6.4
		h-6.4V307.5z M550.6,237.5V233h6.4v4.5H550.6z M561.6,292.1v-6.4h6.4v6.4H561.6z M568,296.6v6.4h-6.4v-6.4H568z M561.6,281.2v-6.4
		h6.4v6.4H561.6z M561.6,270.2v-6.4h6.4v6.4H561.6z M561.6,259.3v-6.4h6.4v6.4H561.6z M561.6,248.4V242h6.4v6.4H561.6z M561.6,307.5
		h6.4v6.4h-6.4V307.5z M561.6,237.5V233h6.4v4.5H561.6z M572.5,292.1v-6.4h6.4v6.4H572.5z M578.9,296.6v6.4h-6.4v-6.4H578.9z
		 M572.5,281.2v-6.4h6.4v6.4H572.5z M572.5,270.2v-6.4h6.4v6.4H572.5z M572.5,259.3v-6.4h6.4v6.4H572.5z M572.5,248.4V242h6.4v6.4
		H572.5z M572.5,307.5h6.4v6.4h-6.4V307.5z M572.5,237.5V233h6.4v4.5H572.5z M497.9,233h4.5v4.5h-4.5V233z M497.9,242h4.5v6.4h-4.5
		V242z M497.9,252.9h4.5v6.4h-4.5V252.9z M497.9,263.8h4.5v6.4h-4.5V263.8z M497.9,274.7h4.5v6.4h-4.5V274.7z M497.9,285.7h4.5v6.4
		h-4.5V285.7z M497.9,296.6h4.5v6.4h-4.5V296.6z M497.9,307.5h4.5v6.4h-4.5V307.5z M497.9,323v-4.5h4.5v4.5H497.9z M506.9,323v-4.5
		h6.4v4.5H506.9z M517.9,323v-4.5h6.4v4.5H517.9z M528.8,323v-4.5h6.4v4.5H528.8z M539.7,323v-4.5h6.4v4.5H539.7z M550.6,323v-4.5
		h6.4v4.5H550.6z M561.6,323v-4.5h6.4v4.5H561.6z M572.5,323v-4.5h6.4v4.5H572.5z M587.9,323h-4.5v-4.5h4.5V323z M587.9,314h-4.5
		v-6.4h4.5V314z M587.9,303h-4.5v-6.4h4.5V303z M587.9,292.1h-4.5v-6.4h4.5V292.1z M587.9,281.2h-4.5v-6.4h4.5V281.2z M587.9,270.2
		h-4.5v-6.4h4.5V270.2z M587.9,259.3h-4.5v-6.4h4.5V259.3z M587.9,248.4h-4.5V242h4.5V248.4z M583.4,237.5V233h4.5v4.5H583.4z"/>
	<path class="st0" d="M596.1,228.5v9v4.5v6.4v4.5v6.4v4.5v6.4v4.5v6.4v4.5v6.4v4.5v6.4v4.5v6.4v4.5v9h9l0,0h4.5l0,0h6.4l0,0h4.5l0,0
		h6.4l0,0h4.5l0,0h6.4l0,0h4.5l0,0h6.4l0,0h4.5l0,0h6.4l0,0h4.5l0,0h6.4l0,0h4.5l0,0h6.4l0,0h4.5l0,0h9v-9v-4.5v-6.4v-4.5v-6.4V292
		v-6.4v-4.5v-6.4v-4.5v-6.4v-4.5v-6.4v-4.5V242v-4.5v-9H596.1z M609.6,292.1v-6.4h6.4v6.4H609.6z M616,296.6v6.4h-6.4v-6.4H616z
		 M609.6,281.2v-6.4h6.4v6.4H609.6z M609.6,270.2v-6.4h6.4v6.4H609.6z M609.6,259.3v-6.4h6.4v6.4H609.6z M609.6,248.4V242h6.4v6.4
		H609.6z M609.6,307.5h6.4v6.4h-6.4V307.5z M609.6,237.5V233h6.4v4.5H609.6z M620.5,292.1v-6.4h6.4v6.4H620.5z M627,296.6v6.4h-6.4
		v-6.4H627z M620.5,281.2v-6.4h6.4v6.4H620.5z M620.5,270.2v-6.4h6.4v6.4H620.5z M620.5,259.3v-6.4h6.4v6.4H620.5z M620.5,248.4V242
		h6.4v6.4H620.5z M620.5,307.5h6.4v6.4h-6.4V307.5z M620.5,237.5V233h6.4v4.5H620.5z M631.5,292.1v-6.4h6.4v6.4H631.5z M637.9,296.6
		v6.4h-6.4v-6.4H637.9z M631.5,281.2v-6.4h6.4v6.4H631.5z M631.5,270.2v-6.4h6.4v6.4H631.5z M631.5,259.3v-6.4h6.4v6.4H631.5z
		 M631.5,248.4V242h6.4v6.4H631.5z M631.5,307.5h6.4v6.4h-6.4V307.5z M631.5,237.5V233h6.4v4.5H631.5z M642.4,292.1v-6.4h6.4v6.4
		H642.4z M648.8,296.6v6.4h-6.4v-6.4H648.8z M642.4,281.2v-6.4h6.4v6.4H642.4z M642.4,270.2v-6.4h6.4v6.4H642.4z M642.4,259.3v-6.4
		h6.4v6.4H642.4z M642.4,248.4V242h6.4v6.4H642.4z M642.4,307.5h6.4v6.4h-6.4V307.5z M642.4,237.5V233h6.4v4.5H642.4z M653.3,292.1
		v-6.4h6.4v6.4H653.3z M659.7,296.6v6.4h-6.4v-6.4H659.7z M653.3,281.2v-6.4h6.4v6.4H653.3z M653.3,270.2v-6.4h6.4v6.4H653.3z
		 M653.3,259.3v-6.4h6.4v6.4H653.3z M653.3,248.4V242h6.4v6.4H653.3z M653.3,307.5h6.4v6.4h-6.4V307.5z M653.3,237.5V233h6.4v4.5
		H653.3z M664.2,292.1v-6.4h6.4v6.4H664.2z M670.7,296.6v6.4h-6.5v-6.4H670.7z M664.2,281.2v-6.4h6.4v6.4H664.2z M664.2,270.2v-6.4
		h6.4v6.4H664.2z M664.2,259.3v-6.4h6.4v6.4H664.2z M664.2,248.4V242h6.4v6.4H664.2z M664.2,307.5h6.4v6.4h-6.4V307.5z M664.2,237.5
		V233h6.4v4.5H664.2z M675.2,292.1v-6.4h6.4v6.4H675.2z M681.6,296.6v6.4h-6.4v-6.4H681.6z M675.2,281.2v-6.4h6.4v6.4H675.2z
		 M675.2,270.2v-6.4h6.4v6.4H675.2z M675.2,259.3v-6.4h6.4v6.4H675.2z M675.2,248.4V242h6.4v6.4H675.2z M675.2,307.5h6.4v6.4h-6.4
		V307.5z M675.2,237.5V233h6.4v4.5H675.2z M600.6,233h4.5v4.5h-4.5V233z M600.6,242h4.5v6.4h-4.5V242z M600.6,252.9h4.5v6.4h-4.5
		V252.9z M600.6,263.8h4.5v6.4h-4.5V263.8z M600.6,274.7h4.5v6.4h-4.5V274.7z M600.6,285.7h4.5v6.4h-4.5V285.7z M600.6,296.6h4.5
		v6.4h-4.5V296.6z M600.6,307.5h4.5v6.4h-4.5V307.5z M600.6,323v-4.5h4.5v4.5H600.6z M609.6,323v-4.5h6.4v4.5H609.6z M620.5,323
		v-4.5h6.4v4.5H620.5z M631.5,323v-4.5h6.4v4.5H631.5z M642.4,323v-4.5h6.4v4.5H642.4z M653.3,323v-4.5h6.4v4.5H653.3z M664.2,323
		v-4.5h6.4v4.5H664.2z M675.2,323v-4.5h6.4v4.5H675.2z M690.6,323h-4.5v-4.5h4.5V323z M690.6,314h-4.5v-6.4h4.5V314z M690.6,303
		h-4.5v-6.4h4.5V303z M690.6,292.1h-4.5v-6.4h4.5V292.1z M690.6,281.2h-4.5v-6.4h4.5V281.2z M690.6,270.2h-4.5v-6.4h4.5V270.2z
		 M690.6,259.3h-4.5v-6.4h4.5V259.3z M690.6,248.4h-4.5V242h4.5V248.4z M686.1,237.5V233h4.5v4.5H686.1z"/>
</g>
<g>
	<path class="st0" d="M493.4,125.3v9v4.5v6.4v4.5v6.4v4.5v6.4v4.5v6.4v4.5v6.4v4.5v6.4v4.5v6.4v4.5v9h9l0,0h4.5l0,0h6.4l0,0h4.5l0,0
		h6.4l0,0h4.5l0,0h6.4l0,0h4.5l0,0h6.4l0,0h4.5l0,0h6.4l0,0h4.5l0,0h6.4l0,0h4.5l0,0h6.4l0,0h4.5l0,0h9v-9v-4.5v-6.4v-4.5v-6.4v-4.5
		v-6.4v-4.5v-6.4V167v-6.4v-4.5v-6.4v-4.5v-6.4v-4.5v-9H493.4z M506.9,188.9v-6.4h6.4v6.4H506.9z M513.4,193.4v6.4H507v-6.4H513.4z
		 M506.9,178v-6.4h6.4v6.4H506.9z M506.9,167.1v-6.4h6.4v6.4H506.9z M506.9,156.2v-6.4h6.4v6.4H506.9z M506.9,145.2v-6.4h6.4v6.4
		H506.9z M506.9,204.4h6.4v6.4h-6.4V204.4z M506.9,134.3v-4.5h6.4v4.5H506.9z M517.9,188.9v-6.4h6.4v6.4H517.9z M524.3,193.4v6.4
		h-6.4v-6.4H524.3z M517.9,178v-6.4h6.4v6.4H517.9z M517.9,167.1v-6.4h6.4v6.4H517.9z M517.9,156.2v-6.4h6.4v6.4H517.9z
		 M517.9,145.2v-6.4h6.4v6.4H517.9z M517.9,204.4h6.4v6.4h-6.4L517.9,204.4L517.9,204.4z M517.9,134.3v-4.5h6.4v4.5H517.9z
		 M528.8,188.9v-6.4h6.4v6.4H528.8z M535.2,193.4v6.4h-6.4v-6.4H535.2z M528.8,178v-6.4h6.4v6.4H528.8z M528.8,167.1v-6.4h6.4v6.4
		H528.8z M528.8,156.2v-6.4h6.4v6.4H528.8z M528.8,145.2v-6.4h6.4v6.4H528.8z M528.8,204.4h6.4v6.4h-6.4V204.4z M528.8,134.3v-4.5
		h6.4v4.5H528.8z M539.7,188.9v-6.4h6.4v6.4H539.7z M546.1,193.4v6.4h-6.4v-6.4H546.1z M539.7,178v-6.4h6.4v6.4H539.7z M539.7,167.1
		v-6.4h6.4v6.4H539.7z M539.7,156.2v-6.4h6.4v6.4H539.7z M539.7,145.2v-6.4h6.4v6.4H539.7z M539.7,204.4h6.4v6.4h-6.4V204.4z
		 M539.7,134.3v-4.5h6.4v4.5H539.7z M550.6,188.9v-6.4h6.4v6.4H550.6z M557.1,193.4v6.4h-6.4v-6.4H557.1z M550.6,178v-6.4h6.4v6.4
		H550.6z M550.6,167.1v-6.4h6.4v6.4H550.6z M550.6,156.2v-6.4h6.4v6.4H550.6z M550.6,145.2v-6.4h6.4v6.4H550.6z M550.6,204.4h6.4
		v6.4h-6.4V204.4z M550.6,134.3v-4.5h6.4v4.5H550.6z M561.6,188.9v-6.4h6.4v6.4H561.6z M568,193.4v6.4h-6.4v-6.4H568z M561.6,178
		v-6.4h6.4v6.4H561.6z M561.6,167.1v-6.4h6.4v6.4H561.6z M561.6,156.2v-6.4h6.4v6.4H561.6z M561.6,145.2v-6.4h6.4v6.4H561.6z
		 M561.6,204.4h6.4v6.4h-6.4V204.4z M561.6,134.3v-4.5h6.4v4.5H561.6z M572.5,188.9v-6.4h6.4v6.4H572.5z M578.9,193.4v6.4h-6.4v-6.4
		H578.9z M572.5,178v-6.4h6.4v6.4H572.5z M572.5,167.1v-6.4h6.4v6.4H572.5z M572.5,156.2v-6.4h6.4v6.4H572.5z M572.5,145.2v-6.4h6.4
		v6.4H572.5z M572.5,204.4h6.4v6.4h-6.4V204.4z M572.5,134.3v-4.5h6.4v4.5H572.5z M497.9,129.8h4.5v4.5h-4.5V129.8z M497.9,138.8
		h4.5v6.4h-4.5V138.8z M497.9,149.7h4.5v6.4h-4.5V149.7z M497.9,160.7h4.5v6.4h-4.5V160.7z M497.9,171.6h4.5v6.4h-4.5V171.6z
		 M497.9,182.5h4.5v6.4h-4.5V182.5z M497.9,193.4h4.5v6.4h-4.5V193.4z M497.9,204.4h4.5v6.4h-4.5V204.4z M497.9,219.8v-4.5h4.5v4.5
		H497.9z M506.9,219.8v-4.5h6.4v4.5H506.9z M517.9,219.8v-4.5h6.4v4.5H517.9z M528.8,219.8v-4.5h6.4v4.5H528.8z M539.7,219.8v-4.5
		h6.4v4.5H539.7z M550.6,219.8v-4.5h6.4v4.5H550.6z M561.6,219.8v-4.5h6.4v4.5H561.6z M572.5,219.8v-4.5h6.4v4.5H572.5z
		 M587.9,219.8h-4.5v-4.5h4.5V219.8z M587.9,210.8h-4.5v-6.4h4.5V210.8z M587.9,199.9h-4.5v-6.4h4.5V199.9z M587.9,188.9h-4.5v-6.4
		h4.5V188.9z M587.9,178h-4.5v-6.4h4.5V178z M587.9,167.1h-4.5v-6.4h4.5V167.1z M587.9,156.2h-4.5v-6.4h4.5V156.2z M587.9,145.2
		h-4.5v-6.4h4.5V145.2z M583.4,134.3v-4.5h4.5v4.5H583.4z"/>
	<path class="st0" d="M596.1,125.3v9v4.5v6.4v4.5v6.4v4.5v6.4v4.5v6.4v4.5v6.4v4.5v6.4v4.5v6.4v4.5v9h9l0,0h4.5l0,0h6.4l0,0h4.5l0,0
		h6.4l0,0h4.5l0,0h6.4l0,0h4.5l0,0h6.4l0,0h4.5l0,0h6.4l0,0h4.5l0,0h6.4l0,0h4.5l0,0h6.4l0,0h4.5l0,0h9v-9v-4.5v-6.4v-4.5v-6.4v-4.5
		v-6.4v-4.5v-6.4V167v-6.4v-4.5v-6.4v-4.5v-6.4v-4.5v-9H596.1z M609.6,188.9v-6.4h6.4v6.4H609.6z M616,193.4v6.4h-6.4v-6.4H616z
		 M609.6,178v-6.4h6.4v6.4H609.6z M609.6,167.1v-6.4h6.4v6.4H609.6z M609.6,156.2v-6.4h6.4v6.4H609.6z M609.6,145.2v-6.4h6.4v6.4
		H609.6z M609.6,204.4h6.4v6.4h-6.4V204.4z M609.6,134.3v-4.5h6.4v4.5H609.6z M620.5,188.9v-6.4h6.4v6.4H620.5z M627,193.4v6.4h-6.4
		v-6.4H627z M620.5,178v-6.4h6.4v6.4H620.5z M620.5,167.1v-6.4h6.4v6.4H620.5z M620.5,156.2v-6.4h6.4v6.4H620.5z M620.5,145.2v-6.4
		h6.4v6.4H620.5z M620.5,204.4h6.4v6.4h-6.4V204.4z M620.5,134.3v-4.5h6.4v4.5H620.5z M631.5,188.9v-6.4h6.4v6.4H631.5z
		 M637.9,193.4v6.4h-6.4v-6.4H637.9z M631.5,178v-6.4h6.4v6.4H631.5z M631.5,167.1v-6.4h6.4v6.4H631.5z M631.5,156.2v-6.4h6.4v6.4
		H631.5z M631.5,145.2v-6.4h6.4v6.4H631.5z M631.5,204.4h6.4v6.4h-6.4V204.4z M631.5,134.3v-4.5h6.4v4.5H631.5z M642.4,188.9v-6.4
		h6.4v6.4H642.4z M648.8,193.4v6.4h-6.4v-6.4H648.8z M642.4,178v-6.4h6.4v6.4H642.4z M642.4,167.1v-6.4h6.4v6.4H642.4z M642.4,156.2
		v-6.4h6.4v6.4H642.4z M642.4,145.2v-6.4h6.4v6.4H642.4z M642.4,204.4h6.4v6.4h-6.4V204.4z M642.4,134.3v-4.5h6.4v4.5H642.4z
		 M653.3,188.9v-6.4h6.4v6.4H653.3z M659.7,193.4v6.4h-6.4v-6.4H659.7z M653.3,178v-6.4h6.4v6.4H653.3z M653.3,167.1v-6.4h6.4v6.4
		H653.3z M653.3,156.2v-6.4h6.4v6.4H653.3z M653.3,145.2v-6.4h6.4v6.4H653.3z M653.3,204.4h6.4v6.4h-6.4V204.4z M653.3,134.3v-4.5
		h6.4v4.5H653.3z M664.2,188.9v-6.4h6.4v6.4H664.2z M670.7,193.4v6.4h-6.5v-6.4H670.7z M664.2,178v-6.4h6.4v6.4H664.2z M664.2,167.1
		v-6.4h6.4v6.4H664.2z M664.2,156.2v-6.4h6.4v6.4H664.2z M664.2,145.2v-6.4h6.4v6.4H664.2z M664.2,204.4h6.4v6.4h-6.4V204.4z
		 M664.2,134.3v-4.5h6.4v4.5H664.2z M675.2,188.9v-6.4h6.4v6.4H675.2z M681.6,193.4v6.4h-6.4v-6.4H681.6z M675.2,178v-6.4h6.4v6.4
		H675.2z M675.2,167.1v-6.4h6.4v6.4H675.2z M675.2,156.2v-6.4h6.4v6.4H675.2z M675.2,145.2v-6.4h6.4v6.4H675.2z M675.2,204.4h6.4
		v6.4h-6.4V204.4z M675.2,134.3v-4.5h6.4v4.5H675.2z M600.6,129.8h4.5v4.5h-4.5V129.8z M600.6,138.8h4.5v6.4h-4.5V138.8z
		 M600.6,149.7h4.5v6.4h-4.5V149.7z M600.6,160.7h4.5v6.4h-4.5V160.7z M600.6,171.6h4.5v6.4h-4.5V171.6z M600.6,182.5h4.5v6.4h-4.5
		V182.5z M600.6,193.4h4.5v6.4h-4.5V193.4z M600.6,204.4h4.5v6.4h-4.5V204.4z M600.6,219.8v-4.5h4.5v4.5H600.6z M609.6,219.8v-4.5
		h6.4v4.5H609.6z M620.5,219.8v-4.5h6.4v4.5H620.5z M631.5,219.8v-4.5h6.4v4.5H631.5z M642.4,219.8v-4.5h6.4v4.5H642.4z
		 M653.3,219.8v-4.5h6.4v4.5H653.3z M664.2,219.8v-4.5h6.4v4.5H664.2z M675.2,219.8v-4.5h6.4v4.5H675.2z M690.6,219.8h-4.5v-4.5h4.5
		V219.8z M690.6,210.8h-4.5v-6.4h4.5V210.8z M690.6,199.9h-4.5v-6.4h4.5V199.9z M690.6,188.9h-4.5v-6.4h4.5V188.9z M690.6,178h-4.5
		v-6.4h4.5V178z M690.6,167.1h-4.5v-6.4h4.5V167.1z M690.6,156.2h-4.5v-6.4h4.5V156.2z M690.6,145.2h-4.5v-6.4h4.5V145.2z
		 M686.1,134.3v-4.5h4.5v4.5H686.1z"/>
</g>
<path class="st0" d="M889.8,287.4V308h-4.2v-20.6h-17.1V308h-4.2v-20.6h-17.1V308H843v-20.6h-17.1V308h-4.2v-20.6h-17.1V308h-4.2
	v-20.6h-17.1V308h-4.2v-20.6h-16.9V308H758v-20.6h-17.1v76.2H758v-19.2h4.2v19.2h17.1v-19.2h4.2v19.2h17.1v-19.2h4.2v19.2h17.1
	v-19.2h4.2v19.2h17.1v-19.2h4.2v19.2h17.1v-19.2h4.2v19.2h17.1v-19.2h4.2v19.2h17.1v-76.2H889.8z M758.1,339.8v-27.3h4.2v27.3H758.1
	z M779.3,339.8v-27.3h4.2v27.3H779.3z M800.6,339.8v-27.3h4.2v27.3H800.6z M821.9,339.8v-27.3h4.2v27.3H821.9z M843.1,339.8v-27.3
	h4.2v27.3H843.1z M864.4,339.8v-27.3h4.2v27.3H864.4z M885.7,339.8v-27.3h4.2v27.3H885.7z"/>
<path class="st0" d="M427.6,287.4v19.9h-2.8v-19.9h-19.7v19.9h-2.9v-19.9h-19.7v19.9h-2.8v-19.9H360v76.2h19.7v-19.9h2.8v19.9h19.7
	v-19.9h2.8v19.9h19.7v-19.9h2.8v19.9h19.7v-76.2H427.6z M379.7,339.1v-27.3h2.8v27.3H379.7z M402.2,339.1v-27.3h2.8v27.3H402.2z
	 M424.7,339.1v-27.3h2.8v27.3H424.7z"/>
<path class="st0" d="M328.3,287.4v19.9H324v-19.9h-17.1v19.9h-4.3v-19.9h-17.1v19.9h-4.3v-19.9h-17.1v19.9h-4.3v-19.9h-17.1v19.9
	h-4.3v-19.9h-17.1v19.9H217v-19.9h-17.1v19.9h-4.3v-19.9h-17.1v76.2h17.1v-19.9h4.3v19.9H217v-19.9h4.3v19.9h17.1v-19.9h4.3v19.9
	h17.1v-19.9h4.3v19.9h17.1v-19.9h4.3v19.9h17.1v-19.9h4.3v19.9H324v-19.9h4.3v19.9h17.1v-76.2H328.3z M195.6,339.1v-27.3h4.3v27.3
	H195.6z M217,339.1v-27.3h4.3v27.3H217z M238.4,339.1v-27.3h4.3v27.3H238.4z M259.8,339.1v-27.3h4.3v27.3H259.8z M281.2,339.1v-27.3
	h4.3v27.3H281.2z M302.6,339.1v-27.3h4.3v27.3H302.6z M324,339.1v-27.3h4.3v27.3H324z"/>
<path class="st0" d="M146.7,287.4v19.9h-3.5v-19.9h-17.1v19.9h-3.5v-19.9h-17v19.9h-3.5v-19.9H85v76.2h17.1v-19.9h3.5v19.9h17.1
	v-19.9h3.5v19.9h17.1v-19.9h3.5v19.9h17.1v-76.2H146.7z M102.1,339.1v-27.3h3.5v27.3H102.1z M122.7,339.1v-27.3h3.5v27.3H122.7z
	 M143.3,339.1v-27.3h3.5v27.3H143.3z"/>
</svg>
