<?xml version="1.0" encoding="utf-8"?>
<!-- Generator: Adobe Illustrator 22.1.0, SVG Export Plug-In . SVG Version: 6.00 Build 0)  -->
<svg version="1.1" id="Layer_1" xmlns="http://www.w3.org/2000/svg" xmlns:xlink="http://www.w3.org/1999/xlink" x="0px" y="0px"
	 width="1368px" height="792px" viewBox="0 0 1368 792" style="enable-background:new 0 0 1368 792;" xml:space="preserve">
<style type="text/css">
	.st0{fill:none;stroke:#FF0000;stroke-miterlimit:10;}
</style>
<path class="st0" d="M577.3,430.4l-32-28l-20.6-18l-50.4-44l-8.2-7.2l-12.4-10.8l-8.2-7.2l-35.4-30.9l-9-7.9L386.9,264l-20.6-18
	l-42.9-37.5l-9.3-8.1l-4.5-3.9l-4.5,3.9l-9,7.9l0.1,0.1l0,0L21.6,448.3v0.1v4v14v5.8v183.2v18v81.5v17.5v0.5h576v-0.5v-17.5v-81.5
	v-18V471.8v-5.4v-14v-4v-0.2L577.3,430.4z M519.4,403.5H396.1v-63h51.2L519.4,403.5z M426.7,322.4h-30.6v-26.7L426.7,322.4z
	 M387.1,287.9v34.6h-13.6v18h13.6v63h-73V288.1h72.8l-20.6-18h-52.2v-46L387.1,287.9z M232.5,655.4v-189h154.7v189H232.5z
	 M387.1,673.4v81.5H232.5v-81.5H387.1z M223.5,345.4v58H100.3l66.4-58H223.5z M187.3,327.4l36.2-31.6v31.6H187.3z M232.5,345.4h14.9
	v-18h-14.9V288h72.7v115.4h-72.7L232.5,345.4L232.5,345.4z M253,270l52.1-45.5V270H253z M305.1,421.5v27h-72.7v-27H305.1z
	 M314.1,448.4v-27h73v27H314.1z M79.7,421.5h143.8v27H48.9L79.7,421.5z M39.6,466.4h183.8v189H39.6V466.4z M39.6,673.4h183.8v81.5
	H39.6V673.4z M579.6,754.9H396.1v-81.5h183.5V754.9z M396.1,655.4v-189h183.5v189H396.1z M396.1,448.4v-27H540l30.8,27H396.1z"/>
<path class="st0" d="M1163.6,430.4l-32-28l-20.6-18l-50.4-44l-8.2-7.2l-12.4-10.8l-8.2-7.2l-35.4-30.9l-9-7.9L973.2,264l-20.6-18
	l-42.9-37.5l-9.3-8.1l-4.5-3.9l-4.5,3.9l-9,7.9l0.1,0.1l0,0L607.9,448.3v0.1v4v14v5.8v183.2v18v81.5v17.5v0.5h576v-0.5v-17.5v-81.5
	v-18V471.8v-5.4v-14v-4v-0.2L1163.6,430.4z M1105.7,403.5H982.4v-63h51.2L1105.7,403.5z M1013,322.4h-30.6v-26.7L1013,322.4z
	 M973.4,287.9v34.6h-13.6v18h13.6v63h-73V288.1h72.8l-20.6-18h-52.2v-46L973.4,287.9z M818.7,655.4v-189h154.7v189H818.7z
	 M973.4,673.4v81.5H818.7v-81.5H973.4z M809.7,345.4v58H686.6l66.4-58H809.7z M773.6,327.4l36.2-31.6v31.6H773.6z M818.7,345.4h14.9
	v-18h-14.9V288h72.7v115.4h-72.7V345.4z M839.3,270l52.1-45.5V270H839.3z M891.4,421.5v27h-72.7v-27H891.4z M900.4,448.4v-27h73v27
	H900.4z M666,421.5h143.8v27H635.1L666,421.5z M625.9,466.4h183.8v189H625.9V466.4z M625.9,673.4h183.8v81.5H625.9V673.4z
	 M1165.9,754.9H982.4v-81.5h183.5V754.9z M982.4,655.4v-189h183.5v189H982.4z M982.4,448.4v-27h143.9l30.8,27H982.4z"/>
<path class="st0" d="M789.2,676.1v20.6h-2.9v-20.6h-17.1v20.6h-2.9v-20.6h-17.1v20.6h-2.9v-20.6h-17.1v20.6h-2.9v-20.6h-17.1v20.6
	h-2.9v-20.6h-17.1v20.6h-2.9v-20.6h-17.1v20.6h-2.9v-20.6h-17.1v20.6h-2.9v-20.6h-17.1v76.2h17.1v-19.2h2.9v19.2h17.1v-19.2h2.9
	v19.2h17.1v-19.2h2.9v19.2h17.1v-19.2h2.9v19.2h17.1v-19.2h2.9v19.2h17.1v-19.2h2.9v19.2h17.1v-19.2h2.9v19.2h17.1v-19.2h2.9v19.2
	h17.1v-76.2H789.2z M646.4,728.5v-27.3h2.9v27.3H646.4z M666.4,728.5v-27.3h2.9v27.3H666.4z M686.4,728.5v-27.3h2.9v27.3H686.4z
	 M706.4,728.5v-27.3h2.9v27.3H706.4z M726.4,728.5v-27.3h2.9v27.3H726.4z M746.4,728.5v-27.3h2.9v27.3H746.4z M766.4,728.5v-27.3
	h2.9v27.3H766.4z M786.3,728.5v-27.3h2.9v27.3H786.3z"/>
<path class="st0" d="M952,676.1v20.6h-3.4v-20.6h-18.3v20.6h-3.4v-20.6h-18.3v20.6h-3.4v-20.6h-18.3v20.6h-3.4v-20.6h-18.3v20.6
	h-3.4v-20.6h-18.3v20.6h-3.4v-20.6h-18.3v76.2h18.3v-19.2h3.4v19.2h18.3v-19.2h3.4v19.2h18.3v-19.2h3.4v19.2h18.3v-19.2h3.4v19.2
	h18.3v-19.2h3.4v19.2h18.3v-19.2h3.4v19.2h18.3v-76.2H952z M840.1,728.5v-27.3h3.4v27.3H840.1z M861.8,728.5v-27.3h3.4v27.3H861.8z
	 M883.5,728.5v-27.3h3.4v27.3H883.5z M905.2,728.5v-27.3h3.4v27.3H905.2z M926.9,728.5v-27.3h3.4v27.3H926.9z M948.6,728.5v-27.3
	h3.4v27.3H948.6z"/>
<path class="st0" d="M1145.6,676.1v20.6h-2.9v-20.6h-17.1v20.6h-2.9v-20.6h-17.1v20.6h-2.9v-20.6h-17.1v20.6h-2.9v-20.6h-17.1v20.6
	h-2.9v-20.6h-17.1v20.6h-2.9v-20.6h-17.1v20.6h-2.9v-20.6h-17.1v20.6h-2.9v-20.6h-17.1v76.2h17.1v-19.2h2.9v19.2h17.1v-19.2h2.9
	v19.2h17.1v-19.2h2.9v19.2h17.1v-19.2h2.9v19.2h17.1v-19.2h2.9v19.2h17.1v-19.2h2.9v19.2h17.1v-19.2h2.9v19.2h17.1v-19.2h2.9v19.2
	h17.1v-76.2H1145.6z M1002.8,728.5v-27.3h2.9v27.3H1002.8z M1022.7,728.5v-27.3h2.9v27.3H1022.7z M1042.7,728.5v-27.3h2.9v27.3
	H1042.7z M1062.7,728.5v-27.3h2.9v27.3H1062.7z M1082.7,728.5v-27.3h2.9v27.3H1082.7z M1102.7,728.5v-27.3h2.9v27.3H1102.7z
	 M1122.7,728.5v-27.3h2.9v27.3H1122.7z M1142.7,728.5v-27.3h2.9v27.3H1142.7z"/>
<path class="st0" d="M1314.5,19.1c0,28.7-18.7,43.3-29.8,43.5c-18.7,0-960.1,0-960.1,0s-29.8-14.8-29.8-43.5
	c-9.1,6.7-15.2,16.5-16.1,27.7c0,26.5,14.4,44.7,44.7,44.7c0,0,55.5,0,139.9,0v41.7h-18v13.4h54v-13.5h-18V91.4
	c179.1,0,469.4,0,648,0v41.7h-18v13.4h54v-13.4h-18V91.4c83.7,0,138.7,0,138.7,0c30.3,0,44.7-18.1,44.7-44.6
	C1329.7,35.6,1323.6,25.8,1314.5,19.1z"/>
<path class="st0" d="M1124.5,224.1c0-28.7-18.7-43.3-29.8-43.5c-18.7,0-960.1,0-960.1,0s-29.8,14.8-29.8,43.5
	c-9.1-6.7-15.2-16.5-16.1-27.7c0-26.5,14.4-44.7,44.7-44.7c0,0,55.5,0,139.9,0v-41.6h-18V96.7h54v13.4h-18v41.7
	c179.1,0,469.4,0,648,0v-41.7h-18V96.7h54v13.4h-18v41.7c83.7,0,138.7,0,138.7,0c30.3,0,44.7,18.1,44.7,44.6
	C1139.7,207.6,1133.6,217.4,1124.5,224.1z"/>
<path class="st0" d="M203,676.1v20.6h-2.9v-20.6H183v20.6h-2.9v-20.6H163v20.6h-2.9v-20.6H143v20.6h-2.9v-20.6H123v20.6h-2.9v-20.6
	H103v20.6h-2.9v-20.6H83v20.6h-2.9v-20.6H63v20.6h-2.9v-20.6H43v76.2h17.1v-19.2H63v19.2h17.1v-19.2H83v19.2h17.1v-19.2h2.9v19.2
	h17.1v-19.2h2.9v19.2h17.1v-19.2h2.9v19.2h17.1v-19.2h2.9v19.2h17.1v-19.2h2.9v19.2h17.1v-19.2h2.9v19.2h17.1v-76.2H203z
	 M60.2,728.5v-27.3h2.9v27.3H60.2z M80.1,728.5v-27.3H83v27.3H80.1z M100.1,728.5v-27.3h2.9v27.3H100.1z M120.1,728.5v-27.3h2.9
	v27.3H120.1z M140.1,728.5v-27.3h2.9v27.3H140.1z M160.1,728.5v-27.3h2.9v27.3H160.1z M180.1,728.5v-27.3h2.9v27.3H180.1z
	 M200.1,728.5v-27.3h2.9v27.3H200.1z"/>
<path class="st0" d="M365.8,676.1v20.6h-3.4v-20.6h-18.3v20.6h-3.4v-20.6h-18.3v20.6H319v-20.6h-18.3v20.6h-3.4v-20.6H279v20.6h-3.4
	v-20.6h-18.3v20.6h-3.4v-20.6h-18.3v76.2h18.3v-19.2h3.4v19.2h18.3v-19.2h3.4v19.2h18.3v-19.2h3.4v19.2H319v-19.2h3.4v19.2h18.3
	v-19.2h3.4v19.2h18.3v-19.2h3.4v19.2h18.3v-76.2H365.8z M254,728.5v-27.3h3.4v27.3H254z M275.7,728.5v-27.3h3.4v27.3H275.7z
	 M297.4,728.5v-27.3h3.4v27.3H297.4z M319,728.5v-27.3h3.4v27.3H319z M340.7,728.5v-27.3h3.4v27.3H340.7z M362.4,728.5v-27.3h3.4
	v27.3H362.4z"/>
<path class="st0" d="M559.4,676.1v20.6h-2.9v-20.6h-17.1v20.6h-2.9v-20.6h-17.1v20.6h-2.9v-20.6h-17.1v20.6h-2.9v-20.6h-17.1v20.6
	h-2.9v-20.6h-17.1v20.6h-2.9v-20.6h-17.1v20.6h-2.9v-20.6h-17.1v20.6h-2.9v-20.6h-17.1v76.2h17.1v-19.2h2.9v19.2h17.1v-19.2h2.9
	v19.2h17.1v-19.2h2.9v19.2h17.1v-19.2h2.9v19.2h17.1v-19.2h2.9v19.2h17.1v-19.2h2.9v19.2h17.1v-19.2h2.9v19.2h17.1v-19.2h2.9v19.2
	h17.1v-76.2H559.4z M416.6,728.5v-27.3h2.9v27.3H416.6z M436.6,728.5v-27.3h2.9v27.3H436.6z M456.6,728.5v-27.3h2.9v27.3H456.6z
	 M476.5,728.5v-27.3h2.9v27.3H476.5z M496.5,728.5v-27.3h2.9v27.3H496.5z M516.5,728.5v-27.3h2.9v27.3H516.5z M536.5,728.5v-27.3
	h2.9v27.3H536.5z M556.5,728.5v-27.3h2.9v27.3H556.5z"/>
</svg>
